<svg xmlns="http://www.w3.org/2000/svg" xmlns:xlink="http://www.w3.org/1999/xlink" width="12" height="9"><defs><path id="a" d="M163.295 1379.796h-7.75l1.854-1.936a.475.475 0 0 0-.19-.854.46.46 0 0 0-.47.226l-2.609 2.69a.47.47 0 0 0-.13.339c.004.14.07.272.18.358l2.57 2.709a.458.458 0 0 0 .588-.035.477.477 0 0 0 .08-.594l-1.854-1.935h7.725c1.008.058 1.795.906 1.795 1.932 0 1.026-.787 1.874-1.795 1.933h-.97a.467.467 0 0 0-.464.471c0 .26.208.471.464.471h.983c1.51-.071 2.698-1.337 2.698-2.875 0-1.537-1.188-2.803-2.698-2.875z"/></defs><use fill="#2fa4de" xlink:href="#a" transform="translate(-154 -1377)"/></svg>