<svg xmlns="http://www.w3.org/2000/svg" xmlns:xlink="http://www.w3.org/1999/xlink" width="16" height="16"><defs><path id="a" d="M271.814 1520.613s-.09.09-.36.225c-.27.136-2.654.856-2.564-1.216.18-.496 1.44-3.11-.99-4.147.27-.496 1.125-.631 1.125-.631l-1.529-2.48s4.813.587 5.308 5.545c0 .766-.045 2.794-.495 3.92-.405-.856-.495-1.216-.495-1.216zm-7.75 5.013c-.54.045-1.215.18-1.395-1.895-.271-.45-.766-.586-1.26-.676-.496-.09-.586-1.127 0-1.94-.496-.54-2.611-2.39-2.162-4.24.45-1.443 1.171-3.292 3.692-4.464.99.947 1.665 1.488.314 2.21-.54.316-.674 1.082 0 1.172 0 0 .136-.676.541-.496.405.18 1.35 1.128.63 1.173-.72.045-1.035.36-1.35.767-.315.405-.9 1.443-1.305 1.488-.405.045-.36-.632-.72-.632s-.72 0-.54 1.128c.224.632 2.16 2.075 6.481 3.428.045.225-.496 2.751-2.926 2.977zm2.215-11.774c.135.27.045.811-.721 1.082l-.992-1.938s1.352-.406 1.713.856zM266 1511a8 8 0 1 0 0 16 8 8 0 0 0 0-16z"/></defs><use fill="#e6e6e6" xlink:href="#a" transform="translate(-258 -1511)"/></svg>