<svg xmlns="http://www.w3.org/2000/svg" xmlns:xlink="http://www.w3.org/1999/xlink" width="9" height="10"><defs><path id="a" d="M869.388 414.515c-.2-1.422.166-2.265 1.097-2.527-.232.247-.334.584-.306 1.013.028.42.376.745.797.745a.76.76 0 0 0 .76-.723c.036-.735-.187-1.41-.669-2.023 1.565.363 2.256 1.828 2.074 4.397a.563.563 0 0 0 .561.603.675.675 0 0 0 .674-.708 1.046 1.046 0 0 0-.083-.394c1.64 1.025 1.475 6.102-3.226 6.102-4.7 0-4.722-5.077-3.08-6.515 0 .107.006.208.02.303a.675.675 0 0 0 .95.516.754.754 0 0 0 .431-.789z"/></defs><use fill="#ff5252" xlink:href="#a" transform="translate(-867 -411)"/></svg>