<svg xmlns="http://www.w3.org/2000/svg" xmlns:xlink="http://www.w3.org/1999/xlink" width="17" height="16"><defs><path id="a" d="M169.735 1520.427a.86.86 0 0 0-.855-.862h-.568a.86.86 0 0 0-.856.862v.571a.86.86 0 0 0 .856.863h.568a.86.86 0 0 0 .855-.863zm0 6.573h-12.47a2.274 2.274 0 0 1-2.265-2.284v-11.432a2.274 2.274 0 0 1 2.265-2.284h10.205a2.274 2.274 0 0 1 2.265 2.284h-12.18a.29.29 0 0 0-.29.292v.57c0 .162.13.293.29.293h12.309a2.27 2.27 0 0 1 2.136 2.27v8.007a2.274 2.274 0 0 1-2.265 2.284z"/></defs><use fill="#e6e6e6" xlink:href="#a" transform="translate(-155 -1511)"/></svg>