<svg width="10" height="12" viewBox="0 0 10 12" fill="none" xmlns="http://www.w3.org/2000/svg">
<path d="M2.50685 11.5469H1.50685C1.45077 11.5459 1.39584 11.5308 1.34717 11.5029C1.2985 11.475 1.25764 11.4353 1.22839 11.3875C1.19915 11.3396 1.18245 11.2851 1.17985 11.2291C1.17725 11.1731 1.18883 11.1173 1.21351 11.0669L3.18352 7.21359H1.00018C0.94011 7.21409 0.881019 7.19835 0.829158 7.16803C0.777297 7.13771 0.734594 7.09394 0.705564 7.04134C0.676535 6.98875 0.662258 6.92929 0.664245 6.86925C0.666231 6.8092 0.684406 6.75082 0.716848 6.70026L4.27685 1.03359C4.30603 0.98804 4.34586 0.950278 4.3929 0.923564C4.43994 0.89685 4.49278 0.881986 4.54685 0.880255H9.02352C9.09008 0.877106 9.15605 0.893978 9.21293 0.928694C9.2698 0.963409 9.31497 1.01437 9.3426 1.07501C9.37023 1.13565 9.37905 1.20317 9.36792 1.26887C9.3568 1.33457 9.32623 1.39543 9.28018 1.44359L6.26018 4.88026H8.05352C8.11701 4.88159 8.1788 4.90104 8.23161 4.93631C8.28442 4.97158 8.32606 5.0212 8.35162 5.07933C8.37719 5.13746 8.38561 5.20169 8.37591 5.26445C8.36621 5.32721 8.33878 5.38589 8.29685 5.43359L2.75352 11.4336C2.72265 11.4687 2.68474 11.497 2.64224 11.5165C2.59974 11.536 2.55361 11.5464 2.50685 11.5469ZM2.06018 10.8803H2.36352L7.28685 5.54692H5.53018C5.46362 5.55007 5.39765 5.5332 5.34077 5.49848C5.28389 5.46377 5.23872 5.4128 5.2111 5.35217C5.18347 5.29153 5.17465 5.224 5.18578 5.1583C5.1969 5.09261 5.22746 5.03175 5.27351 4.98359L8.29352 1.54692H4.73018L1.59018 6.54692H3.73351C3.7896 6.54793 3.84452 6.56307 3.89319 6.59094C3.94187 6.61882 3.98272 6.65852 4.01197 6.70639C4.04122 6.75425 4.05792 6.80871 4.06052 6.86475C4.06312 6.92078 4.05154 6.97656 4.02685 7.02692L2.06018 10.8803Z" fill="#FF5252"/>
</svg>
