<svg width="14" height="14" viewBox="0 0 14 14" fill="none" xmlns="http://www.w3.org/2000/svg">
<circle cx="7" cy="7" r="7" fill="#FF5252"/>
<path d="M5.04 5.45018L5.9276 6.33743L5.4327 6.83268L3.7002 5.10018L5.4327 3.36768L5.9276 3.86293L5.04 4.75018H7.5502C8.2928 4.75018 9.00499 5.04518 9.53009 5.57028C10.0552 6.09538 10.3502 6.80757 10.3502 7.55018C10.3502 8.29278 10.0552 9.00497 9.53009 9.53008C9.00499 10.0552 8.2928 10.3502 7.5502 10.3502H4.4002V9.65018H7.5502C8.10715 9.65018 8.64129 9.42893 9.03512 9.0351C9.42895 8.64127 9.6502 8.10713 9.6502 7.55018C9.6502 6.99322 9.42895 6.45908 9.03512 6.06525C8.64129 5.67143 8.10715 5.45018 7.5502 5.45018H5.04Z" fill="white"/>
</svg>
