<svg width="14" height="12" viewBox="0 0 14 12" fill="none" xmlns="http://www.w3.org/2000/svg">
<path d="M12.0715 2.66341C12.0208 2.46475 11.8768 2.31475 11.7122 2.26875C11.4202 2.18675 10.0008 2.00008 7.00083 2.00008C4.00083 2.00008 2.58216 2.18675 2.28816 2.26875C2.1255 2.31408 1.9815 2.46408 1.93016 2.66341C1.8575 2.94608 1.6675 4.13008 1.6675 6.00008C1.6675 7.86941 1.8575 9.05341 1.93016 9.33741C1.98083 9.53541 2.12483 9.68541 2.28883 9.73075C2.58216 9.81341 4.00016 10.0001 7.00016 10.0001C10.0002 10.0001 11.4195 9.81341 11.7128 9.73141C11.8755 9.68608 12.0195 9.53608 12.0708 9.33675C12.1442 9.05408 12.3335 7.86675 12.3335 6.00008C12.3335 4.13341 12.1442 2.94675 12.0715 2.66341ZM13.3628 2.33208C13.6675 3.52008 13.6675 6.00008 13.6675 6.00008C13.6675 6.00008 13.6675 8.48008 13.3628 9.66808C13.1935 10.3247 12.6982 10.8414 12.0708 11.0161C10.9315 11.3334 7.00016 11.3334 7.00016 11.3334C7.00016 11.3334 3.0715 11.3334 1.93016 11.0161C1.30016 10.8387 0.805496 10.3227 0.638163 9.66808C0.333496 8.48008 0.333496 6.00008 0.333496 6.00008C0.333496 6.00008 0.333496 3.52008 0.638163 2.33208C0.807496 1.67541 1.30283 1.15875 1.93016 0.984081C3.07216 0.666748 7.00083 0.666748 7.00083 0.666748C7.00083 0.666748 10.9315 0.666748 12.0708 0.984081C12.7002 1.16141 13.1955 1.67741 13.3628 2.33208ZM5.6675 8.33341V3.66675L9.6675 6.00008L5.6675 8.33341Z" fill="#FF5252"/>
</svg>
