<svg width="16" height="16" viewBox="0 0 16 16" fill="none" xmlns="http://www.w3.org/2000/svg">
<path d="M10 5.99984L9.67134 5.94517C9.66341 5.9929 9.66596 6.04179 9.67882 6.08843C9.69168 6.13508 9.71454 6.17837 9.74582 6.21529C9.77709 6.25221 9.81603 6.28188 9.85993 6.30224C9.90382 6.32259 9.95162 6.33315 10 6.33317V5.99984ZM2.66668 5.99984V5.6665C2.57827 5.6665 2.49349 5.70162 2.43097 5.76413C2.36846 5.82665 2.33334 5.91143 2.33334 5.99984H2.66668ZM4.00001 12.9998H11.5733V12.3332H4.00001V12.9998ZM12.3733 5.6665H10V6.33317H12.3733V5.6665ZM10.3287 6.0545L10.866 2.83117L10.2087 2.72117L9.67134 5.94517L10.3287 6.0545ZM9.88001 1.6665H9.73801V2.33317H9.88001V1.6665ZM7.79601 2.70584L6.11868 5.22117L6.67334 5.59117L8.35001 3.07517L7.79534 2.70584H7.79601ZM5.28668 5.6665H2.66668V6.33317H5.28668V5.6665ZM2.33334 5.99984V11.3332H3.00001V5.99984H2.33334ZM13.208 11.6598L14.008 7.65984L13.3547 7.52917L12.5547 11.5292L13.208 11.6598ZM6.11868 5.22117C6.02737 5.35815 5.90365 5.47046 5.75851 5.54815C5.61337 5.62584 5.4513 5.66649 5.28668 5.6665V6.33317C5.56103 6.33317 5.83114 6.26545 6.07303 6.13601C6.31493 6.00658 6.52113 5.81943 6.67334 5.59117L6.11868 5.22117ZM10.866 2.83117C10.8899 2.68793 10.8824 2.54119 10.8438 2.40117C10.8053 2.26115 10.7367 2.13121 10.6429 2.02037C10.549 1.90953 10.4322 1.82046 10.3005 1.75935C10.1687 1.69824 10.0252 1.66655 9.88001 1.6665V2.33317C9.92845 2.3331 9.97633 2.34358 10.0203 2.3639C10.0643 2.38421 10.1033 2.41387 10.1347 2.4508C10.166 2.48773 10.1889 2.53105 10.2018 2.57775C10.2147 2.62444 10.2173 2.67338 10.2093 2.72117L10.866 2.83117ZM12.3733 6.33317C12.5213 6.33316 12.6674 6.36598 12.8011 6.42926C12.9349 6.49254 13.0529 6.58471 13.1467 6.69911C13.2405 6.81352 13.3078 6.94731 13.3436 7.09085C13.3795 7.23439 13.3837 7.38409 13.3547 7.52917L14.008 7.65984C14.0563 7.41813 14.0498 7.16872 13.9901 6.92957C13.9304 6.69042 13.8184 6.46749 13.6622 6.27683C13.5059 6.08618 13.3094 5.93255 13.0866 5.82701C12.8639 5.72147 12.6205 5.66665 12.374 5.6665V6.33317H12.3733ZM11.5733 12.9998C11.9587 12.9999 12.3322 12.8664 12.6303 12.6221C12.9283 12.3778 13.1325 12.0377 13.208 11.6598L12.5547 11.5292C12.5093 11.756 12.3868 11.9601 12.2078 12.1067C12.0289 12.2533 11.8047 12.3333 11.5733 12.3332V12.9998ZM9.73734 1.6665C9.35309 1.66645 8.97477 1.76129 8.63599 1.9426C8.2972 2.12391 8.00844 2.38609 7.79534 2.70584L8.35001 3.07517C8.50222 2.84692 8.70842 2.65976 8.95032 2.53033C9.19222 2.40089 9.46233 2.33317 9.73668 2.33317V1.6665H9.73734ZM4.00001 12.3332C3.73479 12.3332 3.48044 12.2278 3.2929 12.0403C3.10537 11.8527 3.00001 11.5984 3.00001 11.3332H2.33334C2.33334 11.552 2.37645 11.7688 2.46021 11.971C2.54397 12.1732 2.66673 12.3569 2.8215 12.5117C2.97626 12.6664 3.16 12.7892 3.3622 12.873C3.56441 12.9567 3.78114 12.9998 4.00001 12.9998V12.3332Z" fill="#FF5252"/>
<path d="M5.33334 6V12.6667" stroke="#FF5252"/>
</svg>
