<svg width="10" height="11" viewBox="0 0 10 11" fill="none" xmlns="http://www.w3.org/2000/svg">
<path d="M4 0.5H6C7.06087 0.5 8.07828 0.921427 8.82843 1.67157C9.57857 2.42172 10 3.43913 10 4.5C10 5.56087 9.57857 6.57828 8.82843 7.32843C8.07828 8.07857 7.06087 8.5 6 8.5V10.25C3.5 9.25 0 7.75 0 4.5C0 3.43913 0.421427 2.42172 1.17157 1.67157C1.92172 0.921427 2.93913 0.5 4 0.5ZM5 7.5H6C6.79565 7.5 7.55871 7.18393 8.12132 6.62132C8.68393 6.05871 9 5.29565 9 4.5C9 3.70435 8.68393 2.94129 8.12132 2.37868C7.55871 1.81607 6.79565 1.5 6 1.5H4C3.20435 1.5 2.44129 1.81607 1.87868 2.37868C1.31607 2.94129 1 3.70435 1 4.5C1 6.305 2.231 7.483 5 8.74V7.5Z" fill="#FF5252"/>
</svg>
