<svg width="15" height="14" viewBox="0 0 15 14" fill="none" xmlns="http://www.w3.org/2000/svg">
<path fill-rule="evenodd" clip-rule="evenodd" d="M7.5 14C11.366 14 14.5 10.866 14.5 7C14.5 3.13401 11.366 0 7.5 0C3.63401 0 0.5 3.13401 0.5 7C0.5 10.866 3.63401 14 7.5 14Z" fill="#FF5252"/>
<path d="M9.25 2.6881C9.11328 2.66707 8.64236 2.625 8.09549 2.625C6.9511 2.625 6.16623 3.35066 6.16623 4.68104V5.82737H4.875V7.38386H6.16623V11.375H7.71571V7.38386H9.00188L9.19936 5.82737H7.71571V4.83353C7.71571 4.38657 7.83218 4.07632 8.45501 4.07632H9.25V2.6881Z" fill="white"/>
</svg>
