<svg width="14" height="14" viewBox="0 0 14 14" fill="none" xmlns="http://www.w3.org/2000/svg">
<g clip-path="url(#clip0_2265_9203)">
<path d="M0.4375 8.6626C0.553532 8.6626 0.664812 8.70869 0.746859 8.79074C0.828906 8.87279 0.875 8.98407 0.875 9.1001V11.2876C0.875 11.5197 0.967187 11.7422 1.13128 11.9063C1.29538 12.0704 1.51794 12.1626 1.75 12.1626H12.25C12.4821 12.1626 12.7046 12.0704 12.8687 11.9063C13.0328 11.7422 13.125 11.5197 13.125 11.2876V9.1001C13.125 8.98407 13.1711 8.87279 13.2531 8.79074C13.3352 8.70869 13.4465 8.6626 13.5625 8.6626C13.6785 8.6626 13.7898 8.70869 13.8719 8.79074C13.9539 8.87279 14 8.98407 14 9.1001V11.2876C14 11.7517 13.8156 12.1968 13.4874 12.525C13.1592 12.8532 12.7141 13.0376 12.25 13.0376H1.75C1.28587 13.0376 0.840752 12.8532 0.512563 12.525C0.184374 12.1968 0 11.7517 0 11.2876V9.1001C0 8.98407 0.0460936 8.87279 0.128141 8.79074C0.210188 8.70869 0.321468 8.6626 0.4375 8.6626Z" fill="#FF5252"/>
<path d="M6.69025 10.3722C6.73089 10.413 6.77917 10.4453 6.83232 10.4674C6.88548 10.4894 6.94246 10.5008 7 10.5008C7.05755 10.5008 7.11453 10.4894 7.16768 10.4674C7.22083 10.4453 7.26911 10.413 7.30975 10.3722L9.93475 7.74725C10.0169 7.6651 10.0631 7.55368 10.0631 7.4375C10.0631 7.32132 10.0169 7.2099 9.93475 7.12775C9.8526 7.0456 9.74118 6.99945 9.625 6.99945C9.50882 6.99945 9.3974 7.0456 9.31525 7.12775L7.4375 9.00638V1.3125C7.4375 1.19647 7.39141 1.08519 7.30936 1.00314C7.22732 0.921094 7.11604 0.875 7 0.875C6.88397 0.875 6.77269 0.921094 6.69064 1.00314C6.6086 1.08519 6.5625 1.19647 6.5625 1.3125V9.00638L4.68475 7.12775C4.6026 7.0456 4.49118 6.99945 4.375 6.99945C4.25882 6.99945 4.1474 7.0456 4.06525 7.12775C3.9831 7.2099 3.93695 7.32132 3.93695 7.4375C3.93695 7.55368 3.9831 7.6651 4.06525 7.74725L6.69025 10.3722Z" fill="#FF5252"/>
</g>
<defs>
<clipPath id="clip0_2265_9203">
<rect width="14" height="14" fill="white"/>
</clipPath>
</defs>
</svg>
