<svg width="16" height="16" viewBox="0 0 16 16" fill="none" xmlns="http://www.w3.org/2000/svg">
<circle cx="8" cy="8" r="8" fill="#FF5252"/>
<path d="M9.20001 7.2001L9.00281 7.1673C8.99805 7.19594 8.99958 7.22527 9.00729 7.25326C9.01501 7.28124 9.02873 7.30722 9.04749 7.32937C9.06626 7.35152 9.08962 7.36932 9.11596 7.38154C9.14229 7.39375 9.17097 7.40008 9.20001 7.4001V7.2001ZM4.80001 7.2001V7.0001C4.74696 7.0001 4.69609 7.02117 4.65858 7.05868C4.62108 7.09618 4.60001 7.14705 4.60001 7.2001H4.80001ZM5.60001 11.4001H10.144V11.0001H5.60001V11.4001ZM10.624 7.0001H9.20001V7.4001H10.624V7.0001ZM9.39721 7.2329L9.71961 5.2989L9.32521 5.2329L9.00281 7.1673L9.39721 7.2329ZM9.12801 4.6001H9.04281V5.0001H9.12801V4.6001ZM7.87761 5.2237L6.87121 6.7329L7.20401 6.9549L8.21001 5.4453L7.87721 5.2237H7.87761ZM6.37201 7.0001H4.80001V7.4001H6.37201V7.0001ZM4.60001 7.2001V10.4001H5.00001V7.2001H4.60001ZM11.1248 10.5961L11.6048 8.1961L11.2128 8.1177L10.7328 10.5177L11.1248 10.5961ZM6.87121 6.7329C6.81642 6.81508 6.74219 6.88247 6.65511 6.92909C6.56802 6.9757 6.47078 7.00009 6.37201 7.0001V7.4001C6.53662 7.4001 6.69868 7.35947 6.84382 7.2818C6.98896 7.20414 7.11268 7.09185 7.20401 6.9549L6.87121 6.7329ZM9.71961 5.2989C9.73395 5.21295 9.72941 5.12491 9.70629 5.0409C9.68317 4.95689 9.64203 4.87892 9.58573 4.81241C9.52943 4.74591 9.45932 4.69247 9.38027 4.6558C9.30123 4.61914 9.21514 4.60013 9.12801 4.6001V5.0001C9.15707 5.00005 9.1858 5.00634 9.21218 5.01853C9.23857 5.03072 9.26198 5.04851 9.28079 5.07067C9.2996 5.09283 9.31335 5.11883 9.32109 5.14684C9.32883 5.17486 9.33037 5.20423 9.32561 5.2329L9.71961 5.2989ZM10.624 7.4001C10.7128 7.40009 10.8004 7.41978 10.8807 7.45775C10.9609 7.49572 11.0317 7.55102 11.088 7.61966C11.1443 7.68831 11.1847 7.76858 11.2062 7.85471C11.2277 7.94083 11.2302 8.03065 11.2128 8.1177L11.6048 8.1961C11.6338 8.05107 11.6299 7.90143 11.594 7.75794C11.5582 7.61445 11.491 7.48069 11.3973 7.3663C11.3036 7.2519 11.1856 7.15972 11.052 7.0964C10.9183 7.03308 10.7723 7.00019 10.6244 7.0001V7.4001H10.624ZM10.144 11.4001C10.3752 11.4001 10.5993 11.3201 10.7782 11.1735C10.957 11.0269 11.0795 10.8228 11.1248 10.5961L10.7328 10.5177C10.7056 10.6538 10.6321 10.7763 10.5247 10.8642C10.4173 10.9522 10.2828 11.0002 10.144 11.0001V11.4001ZM9.04241 4.6001C8.81186 4.60006 8.58486 4.65697 8.38159 4.76575C8.17832 4.87454 8.00506 5.03185 7.87721 5.2237L8.21001 5.4453C8.30133 5.30834 8.42505 5.19605 8.57019 5.11839C8.71533 5.04073 8.8774 5.00009 9.04201 5.0001V4.6001H9.04241ZM5.60001 11.0001C5.44088 11.0001 5.28826 10.9369 5.17574 10.8244C5.06322 10.7118 5.00001 10.5592 5.00001 10.4001H4.60001C4.60001 10.5314 4.62587 10.6615 4.67613 10.7828C4.72638 10.9041 4.80004 11.0143 4.8929 11.1072C4.98576 11.2001 5.096 11.2737 5.21732 11.324C5.33865 11.3742 5.46868 11.4001 5.60001 11.4001V11.0001Z" fill="white"/>
<path d="M6.39999 7.2002V11.2002" stroke="white" stroke-width="0.5"/>
</svg>
