<svg width="17" height="16" viewBox="0 0 17 16" fill="none" xmlns="http://www.w3.org/2000/svg">
<path d="M4.55199 4.66686L6.24266 6.35686L5.29999 7.30019L1.99999 4.0002L5.29999 0.700195L6.24266 1.64353L4.55199 3.33353H9.33332C10.7478 3.33353 12.1044 3.89543 13.1046 4.89563C14.1048 5.89582 14.6667 7.25237 14.6667 8.66686C14.6667 10.0813 14.1048 11.4379 13.1046 12.4381C12.1044 13.4383 10.7478 14.0002 9.33332 14.0002H3.33332V12.6669H9.33332C10.3942 12.6669 11.4116 12.2454 12.1617 11.4953C12.9119 10.7451 13.3333 9.72773 13.3333 8.66686C13.3333 7.606 12.9119 6.58858 12.1617 5.83843C11.4116 5.08829 10.3942 4.66686 9.33332 4.66686H4.55199Z" fill="#FF5252"/>
</svg>
