<svg width="14" height="14" viewBox="0 0 14 14" fill="none" xmlns="http://www.w3.org/2000/svg">
<path d="M9.66683 0.666748C9.84364 0.666748 10.0132 0.736986 10.1382 0.86201C10.2633 0.987034 10.3335 1.1566 10.3335 1.33341V3.33341H13.0002C13.177 3.33341 13.3465 3.40365 13.4716 3.52868C13.5966 3.6537 13.6668 3.82327 13.6668 4.00008V13.3334C13.6668 13.5102 13.5966 13.6798 13.4716 13.8048C13.3465 13.9298 13.177 14.0001 13.0002 14.0001H1.00016C0.823352 14.0001 0.653782 13.9298 0.528758 13.8048C0.403734 13.6798 0.333496 13.5102 0.333496 13.3334V4.00008C0.333496 3.82327 0.403734 3.6537 0.528758 3.52868C0.653782 3.40365 0.823352 3.33341 1.00016 3.33341H3.66683V1.33341C3.66683 1.1566 3.73707 0.987034 3.86209 0.86201C3.98712 0.736986 4.15669 0.666748 4.3335 0.666748H9.66683ZM12.3335 4.66675H1.66683V12.6667H12.3335V4.66675ZM7.66683 6.00008V8.00008H9.66683V9.33341H7.66616L7.66683 11.3334H6.3335L6.33283 9.33341H4.3335V8.00008H6.3335V6.00008H7.66683ZM9.00016 2.00008H5.00016V3.33341H9.00016V2.00008Z" fill="#FF5252"/>
</svg>
