<svg width="14" height="14" viewBox="0 0 14 14" fill="none" xmlns="http://www.w3.org/2000/svg">
<circle cx="7" cy="7" r="7" fill="#FF5252"/>
<path d="M6.3 3.8501H7.7C8.44261 3.8501 9.1548 4.1451 9.6799 4.6702C10.205 5.1953 10.5 5.90749 10.5 6.6501C10.5 7.3927 10.205 8.1049 9.6799 8.63C9.1548 9.1551 8.44261 9.4501 7.7 9.4501V10.6751C5.95 9.9751 3.5 8.9251 3.5 6.6501C3.5 5.90749 3.795 5.1953 4.3201 4.6702C4.8452 4.1451 5.55739 3.8501 6.3 3.8501ZM7 8.7501H7.7C8.25696 8.7501 8.7911 8.52885 9.18493 8.13502C9.57875 7.7412 9.8 7.20705 9.8 6.6501C9.8 6.09314 9.57875 5.559 9.18493 5.16517C8.7911 4.77135 8.25696 4.5501 7.7 4.5501H6.3C5.74305 4.5501 5.2089 4.77135 4.81508 5.16517C4.42125 5.559 4.2 6.09314 4.2 6.6501C4.2 7.9136 5.0617 8.7382 7 9.6181V8.7501Z" fill="white"/>
</svg>
