<svg width="14" height="14" viewBox="0 0 14 14" fill="none" xmlns="http://www.w3.org/2000/svg">
<circle cx="7" cy="7" r="7" fill="#FF5252"/>
<path d="M8.0499 6.30039L7.87735 6.27169C7.87319 6.29675 7.87453 6.32242 7.88128 6.3469C7.88803 6.37139 7.90003 6.39412 7.91645 6.4135C7.93287 6.43289 7.95331 6.44846 7.97636 6.45915C7.9994 6.46984 8.0245 6.47538 8.0499 6.47539V6.30039ZM4.1999 6.30039V6.12539C4.15349 6.12539 4.10898 6.14383 4.07616 6.17665C4.04334 6.20947 4.0249 6.25398 4.0249 6.30039H4.1999ZM4.8999 9.97539H8.8759V9.62539H4.8999V9.97539ZM9.2959 6.12539H8.0499V6.47539H9.2959V6.12539ZM8.22245 6.32909L8.50455 4.63684L8.15945 4.57909L7.87735 6.27169L8.22245 6.32909ZM7.9869 4.02539H7.91235V4.37539H7.9869V4.02539ZM6.8928 4.57104L6.0122 5.89159L6.3034 6.08584L7.18365 4.76494L6.89245 4.57104H6.8928ZM5.5754 6.12539H4.1999V6.47539H5.5754V6.12539ZM4.0249 6.30039V9.10039H4.3749V6.30039H4.0249ZM9.7341 9.27189L10.1541 7.17189L9.8111 7.10329L9.3911 9.20329L9.7341 9.27189ZM6.0122 5.89159C5.96426 5.9635 5.89931 6.02247 5.82312 6.06326C5.74692 6.10404 5.66183 6.12538 5.5754 6.12539V6.47539C5.71944 6.47539 5.86124 6.43984 5.98824 6.37188C6.11524 6.30393 6.22349 6.20567 6.3034 6.08584L6.0122 5.89159ZM8.50455 4.63684C8.51711 4.56164 8.51313 4.4846 8.4929 4.41109C8.47267 4.33758 8.43667 4.26936 8.38741 4.21117C8.33815 4.15298 8.2768 4.10622 8.20763 4.07413C8.13847 4.04205 8.06315 4.02542 7.9869 4.02539V4.37539C8.01233 4.37535 8.03747 4.38086 8.06056 4.39152C8.08365 4.40219 8.10413 4.41776 8.12059 4.43715C8.13705 4.45653 8.14908 4.47928 8.15585 4.50379C8.16263 4.52831 8.16397 4.554 8.1598 4.57909L8.50455 4.63684ZM9.2959 6.47539C9.37357 6.47539 9.45028 6.49262 9.52049 6.52584C9.5907 6.55906 9.65266 6.60745 9.70191 6.66751C9.75116 6.72757 9.78647 6.79782 9.80529 6.87317C9.82411 6.94853 9.82633 7.02712 9.8111 7.10329L10.1541 7.17189C10.1795 7.045 10.176 6.91406 10.1447 6.7885C10.1133 6.66295 10.0546 6.54591 9.97253 6.44581C9.89052 6.34572 9.78732 6.26506 9.67038 6.20966C9.55343 6.15425 9.42566 6.12547 9.29625 6.12539V6.47539H9.2959ZM8.8759 9.97539C9.07823 9.97543 9.27432 9.90535 9.43079 9.77709C9.58726 9.64882 9.69445 9.47029 9.7341 9.27189L9.3911 9.20329C9.3673 9.32238 9.30295 9.42953 9.20901 9.5065C9.11507 9.58346 8.99735 9.62548 8.8759 9.62539V9.97539ZM7.912 4.02539C7.71027 4.02536 7.51165 4.07515 7.33379 4.17034C7.15593 4.26553 7.00433 4.40317 6.89245 4.57104L7.18365 4.76494C7.26356 4.64511 7.37182 4.54685 7.49882 4.4789C7.62581 4.41094 7.76762 4.37539 7.91165 4.37539V4.02539H7.912ZM4.8999 9.62539C4.76066 9.62539 4.62713 9.57008 4.52867 9.47162C4.43021 9.37317 4.3749 9.23963 4.3749 9.10039H4.0249C4.0249 9.2153 4.04753 9.32908 4.09151 9.43524C4.13548 9.5414 4.19993 9.63786 4.28118 9.71911C4.36244 9.80036 4.45889 9.86481 4.56505 9.90879C4.67121 9.95276 4.785 9.97539 4.8999 9.97539V9.62539Z" fill="white"/>
<path d="M5.6001 6.30029V9.80029" stroke="white" stroke-width="0.5"/>
</svg>
