<svg width="17" height="16" viewBox="0 0 17 16" fill="none" xmlns="http://www.w3.org/2000/svg">
<path d="M4.63666 12.6667L1.66666 15V2.66667C1.66666 2.48986 1.7369 2.32029 1.86193 2.19526C1.98695 2.07024 2.15652 2 2.33333 2H14.3333C14.5101 2 14.6797 2.07024 14.8047 2.19526C14.9298 2.32029 15 2.48986 15 2.66667V12C15 12.1768 14.9298 12.3464 14.8047 12.4714C14.6797 12.5964 14.5101 12.6667 14.3333 12.6667H4.63666ZM4.17533 11.3333H13.6667V3.33333H3V12.2567L4.17533 11.3333ZM7.66666 6.66667H9V8H7.66666V6.66667ZM5 6.66667H6.33333V8H5V6.66667ZM10.3333 6.66667H11.6667V8H10.3333V6.66667Z" fill="#FF5252"/>
</svg>
