<svg width="16" height="15" viewBox="0 0 16 15" fill="none" xmlns="http://www.w3.org/2000/svg">
<path d="M14 4.00008H11.8867L10.6667 2.66675H6.66667V4.00008H10.08L11.3 5.33341H14V13.3334H3.33333V7.33341H2V13.3334C2 14.0667 2.6 14.6667 3.33333 14.6667H14C14.7333 14.6667 15.3333 14.0667 15.3333 13.3334V5.33341C15.3333 4.60008 14.7333 4.00008 14 4.00008ZM5.33333 9.33341C5.33333 11.1734 6.82667 12.6667 8.66667 12.6667C10.5067 12.6667 12 11.1734 12 9.33341C12 7.49341 10.5067 6.00008 8.66667 6.00008C6.82667 6.00008 5.33333 7.49341 5.33333 9.33341ZM8.66667 7.33341C9.76667 7.33341 10.6667 8.23341 10.6667 9.33341C10.6667 10.4334 9.76667 11.3334 8.66667 11.3334C7.56667 11.3334 6.66667 10.4334 6.66667 9.33341C6.66667 8.23341 7.56667 7.33341 8.66667 7.33341ZM3.33333 4.00008H5.33333V2.66675H3.33333V0.666748H2V2.66675H0V4.00008H2V6.00008H3.33333V4.00008Z" fill="#FF5252"/>
</svg>
