<svg width="15" height="14" viewBox="0 0 15 14" fill="none" xmlns="http://www.w3.org/2000/svg">
<rect x="0.5" width="14" height="14" rx="7" fill="#FF5252"/>
<path d="M4 9.79884V4.67077C4 4.49287 4.08194 4.32226 4.22781 4.19647C4.37367 4.07067 4.5715 4 4.77778 4H10.2222C10.4285 4 10.6263 4.07067 10.7722 4.19647C10.9181 4.32226 11 4.49287 11 4.67077V8.02464C11 8.20254 10.9181 8.37316 10.7722 8.49895C10.6263 8.62475 10.4285 8.69542 10.2222 8.69542H5.92928C5.8127 8.69543 5.69762 8.71804 5.59254 8.76158C5.48747 8.80512 5.39508 8.86848 5.32222 8.94696L4.41572 9.92428C4.38555 9.95688 4.34438 9.9806 4.2979 9.99214C4.25142 10.0037 4.20193 10.0025 4.15628 9.98871C4.11062 9.97494 4.07106 9.94926 4.04306 9.91525C4.01507 9.88123 4.00002 9.84056 4 9.79884Z" stroke="white" stroke-width="0.8"/>
</svg>
