<?xml version="1.0" encoding="utf-8"?>
<!-- Generator: Adobe Illustrator 28.3.0, SVG Export Plug-In . SVG Version: 6.00 Build 0)  -->
<svg version="1.1" id="Слой_1" xmlns="http://www.w3.org/2000/svg" xmlns:xlink="http://www.w3.org/1999/xlink" x="0px" y="0px"
	 viewBox="0 0 24 24" style="enable-background:new 0 0 24 24;" xml:space="preserve">
<style type="text/css">
	.st0{fill:#DC221C;}
</style>
<path class="st0" d="M16.6,5.8C15.9,5,15.5,4,15.5,3h-3.1v12.4c0,0.7-0.3,1.3-0.8,1.8c-0.5,0.5-1.1,0.7-1.8,0.7
	c-1.4,0-2.6-1.2-2.6-2.6c0-1.7,1.7-3,3.4-2.5V9.7c-3.5-0.5-6.5,2.2-6.5,5.6c0,3.3,2.8,5.7,5.7,5.7c3.1,0,5.7-2.5,5.7-5.7V9
	c1.3,0.9,2.8,1.4,4.3,1.4V7.3C19.8,7.3,18,7.4,16.6,5.8z"/>
</svg>
