<svg xmlns="http://www.w3.org/2000/svg" xmlns:xlink="http://www.w3.org/1999/xlink" width="32" height="32"><defs><path id="a" d="M704 552v-32h32v32z"/><path id="c" d="M725.636 533.862c-.744 0-1.417.191-2.018.575-.601.383-1.139.917-1.612 1.6v5.919c.428.646.902 1.099 1.42 1.358.519.26 1.116.389 1.793.389.66 0 1.24-.12 1.736-.36.496-.241.91-.581 1.245-1.021a4.59 4.59 0 0 0 .755-1.578 7.59 7.59 0 0 0 .254-2.024c0-1.668-.308-2.895-.924-3.68-.617-.786-1.5-1.178-2.65-1.178zm-4.712 10.54V528h1.082v7.147a5.858 5.858 0 0 1 1.725-1.567c.653-.383 1.39-.575 2.209-.575 1.375 0 2.448.475 3.218 1.426.77.95 1.156 2.38 1.156 4.29 0 .819-.107 1.583-.321 2.293a5.448 5.448 0 0 1-.947 1.85 4.5 4.5 0 0 1-1.533 1.233c-.605.301-1.302.451-2.092.451-.781 0-1.454-.152-2.017-.456-.564-.305-1.049-.754-1.455-1.347l-.067 1.375c-.023.188-.124.282-.305.282zm-9.954-.98h7.564v.98h-8.714V528.45h1.15z"/><clipPath id="b"><use fill="#fff" xlink:href="#a"/></clipPath></defs><use fill="#fff" fill-opacity="0" stroke="#ff5252" stroke-miterlimit="50" stroke-width="1.45" clip-path="url(&quot;#b&quot;)" xlink:href="#a" transform="translate(-704 -520)"/><use fill="#ff5252" xlink:href="#c" transform="translate(-704 -520)"/></svg>