<svg xmlns="http://www.w3.org/2000/svg" xmlns:xlink="http://www.w3.org/1999/xlink" width="139" height="15"><defs><path id="a" d="M255.7 4196.31v-9.95h.52c.173 0 .273.083.3.25l.09 1.44c.193-.273.4-.523.62-.75.22-.227.455-.422.705-.585.25-.163.517-.29.8-.38.283-.09.582-.135.895-.135.727 0 1.307.212 1.74.635.433.423.727 1.012.88 1.765.12-.413.288-.77.505-1.07.217-.3.465-.548.745-.745.28-.197.585-.343.915-.44.33-.097.668-.145 1.015-.145.493 0 .937.082 1.33.245.393.163.728.405 1.005.725.277.32.488.713.635 1.18.147.467.22 1 .22 1.6v6.36h-.96v-6.36c0-.973-.21-1.715-.63-2.225-.42-.51-1.02-.765-1.8-.765-.347 0-.678.063-.995.19a2.411 2.411 0 0 0-.84.565c-.243.25-.437.562-.58.935-.143.373-.215.807-.215 1.3v6.36h-.95v-6.36c0-.967-.193-1.707-.58-2.22-.387-.513-.95-.77-1.69-.77-.54 0-1.04.162-1.5.485-.46.323-.87.772-1.23 1.345v7.52zm-7.03-.62c.593 0 1.112-.102 1.555-.305a2.944 2.944 0 0 0 1.11-.875c.297-.38.518-.838.665-1.375.147-.537.22-1.138.22-1.805 0-.66-.073-1.26-.22-1.8a3.908 3.908 0 0 0-.665-1.385 2.97 2.97 0 0 0-1.11-.885c-.443-.207-.962-.31-1.555-.31s-1.112.103-1.555.31a2.97 2.97 0 0 0-1.11.885c-.297.383-.52.845-.67 1.385-.15.54-.225 1.14-.225 1.8 0 .667.075 1.268.225 1.805.15.537.373.995.67 1.375.297.38.667.672 1.11.875.443.203.962.305 1.555.305zm0-9.49c.713 0 1.352.122 1.915.365a3.903 3.903 0 0 1 1.425 1.035c.387.447.682.985.885 1.615.203.63.305 1.335.305 2.115 0 .78-.102 1.483-.305 2.11a4.591 4.591 0 0 1-.885 1.61c-.387.447-.862.79-1.425 1.03-.563.24-1.202.36-1.915.36-.713 0-1.352-.12-1.915-.36a3.899 3.899 0 0 1-1.43-1.03 4.548 4.548 0 0 1-.89-1.61c-.203-.627-.305-1.33-.305-2.11 0-.78.102-1.485.305-2.115.203-.63.5-1.168.89-1.615a3.95 3.95 0 0 1 1.43-1.035c.563-.243 1.202-.365 1.915-.365zm-6.34 1.49a1.033 1.033 0 0 1-.095.085.2.2 0 0 1-.125.035c-.067 0-.158-.045-.275-.135a3.713 3.713 0 0 0-1.19-.59 3.592 3.592 0 0 0-1.055-.135c-.573 0-1.082.102-1.525.305a3.03 3.03 0 0 0-1.12.875c-.303.38-.535.84-.695 1.38a6.4 6.4 0 0 0-.24 1.82c0 .7.082 1.32.245 1.86.163.54.395.995.695 1.365.3.37.663.652 1.09.845.427.193.9.29 1.42.29.48 0 .882-.057 1.205-.17.323-.113.59-.237.8-.37.21-.133.377-.257.5-.37.123-.113.222-.17.295-.17a.23.23 0 0 1 .2.1l.26.32a2.9 2.9 0 0 1-.58.56 3.934 3.934 0 0 1-.79.45 4.843 4.843 0 0 1-.955.295 5.37 5.37 0 0 1-1.075.105 4.266 4.266 0 0 1-1.735-.345 3.76 3.76 0 0 1-1.35-1c-.377-.437-.67-.972-.88-1.605-.21-.633-.315-1.353-.315-2.16 0-.76.1-1.453.3-2.08a4.68 4.68 0 0 1 .875-1.62 3.926 3.926 0 0 1 1.41-1.055c.557-.25 1.195-.375 1.915-.375.647 0 1.222.103 1.725.31a4.24 4.24 0 0 1 1.315.84zm-11.07 7.85a.936.936 0 0 1 .265-.655.98.98 0 0 1 .29-.2.872.872 0 0 1 .365-.075.88.88 0 0 1 .36.075.961.961 0 0 1 .495.495.88.88 0 0 1 .075.36.872.872 0 0 1-.075.365.98.98 0 0 1-.2.29.936.936 0 0 1-.655.265.89.89 0 0 1-.655-.265.89.89 0 0 1-.265-.655zm-2.72-6.31c0-.987-.137-1.867-.41-2.64-.273-.773-.658-1.427-1.155-1.96a4.91 4.91 0 0 0-1.795-1.22c-.7-.28-1.477-.42-2.33-.42h-4.13v12.49h4.13c.853 0 1.63-.14 2.33-.42a4.91 4.91 0 0 0 1.795-1.22c.497-.533.882-1.187 1.155-1.96.273-.773.41-1.657.41-2.65zm1.06 0c0 1.093-.163 2.077-.49 2.95-.327.873-.787 1.617-1.38 2.23a5.981 5.981 0 0 1-2.13 1.41c-.827.327-1.743.49-2.75.49h-5.16v-14.15h5.16c1.007 0 1.923.163 2.75.49a5.981 5.981 0 0 1 2.13 1.41c.593.613 1.053 1.357 1.38 2.23.327.873.49 1.853.49 2.94zm-23.21-.08h2.46c.627 0 1.188-.075 1.685-.225.497-.15.917-.365 1.26-.645.343-.28.605-.617.785-1.01.18-.393.27-.837.27-1.33 0-1.007-.33-1.753-.99-2.24-.66-.487-1.62-.73-2.88-.73h-2.59zm0 .76v6.4h-1.02v-14.15h3.61c1.633 0 2.853.315 3.66.945.807.63 1.21 1.555 1.21 2.775 0 .54-.093 1.033-.28 1.48a3.471 3.471 0 0 1-.805 1.175c-.35.337-.772.613-1.265.83a5.63 5.63 0 0 1-1.67.425c.16.1.303.233.43.4l4.87 6.12h-.89a.588.588 0 0 1-.275-.06.721.721 0 0 1-.225-.2l-4.53-5.74a1.005 1.005 0 0 0-.365-.31c-.13-.06-.332-.09-.605-.09zm-13.03 1.26h6.34l-2.89-7.15a5.444 5.444 0 0 1-.14-.385 15.4 15.4 0 0 1-.14-.455 15.4 15.4 0 0 1-.14.455 7.501 7.501 0 0 1-.14.395zm9.47 5.14h-.79a.347.347 0 0 1-.23-.075.497.497 0 0 1-.14-.195l-1.67-4.11h-6.95l-1.66 4.11a.43.43 0 0 1-.14.19.372.372 0 0 1-.24.08h-.78l5.79-14.15h1.02zm-14.74-7.08c0-.987-.137-1.873-.41-2.66-.273-.787-.658-1.453-1.155-2a4.953 4.953 0 0 0-1.795-1.255c-.7-.29-1.477-.435-2.33-.435-.84 0-1.608.145-2.305.435a5.058 5.058 0 0 0-1.8 1.255c-.503.547-.893 1.213-1.17 2-.277.787-.415 1.673-.415 2.66 0 .993.138 1.882.415 2.665.277.783.667 1.448 1.17 1.995a5.004 5.004 0 0 0 1.8 1.25c.697.287 1.465.43 2.305.43.853 0 1.63-.143 2.33-.43a4.9 4.9 0 0 0 1.795-1.25c.497-.547.882-1.212 1.155-1.995.273-.783.41-1.672.41-2.665zm1.06 0c0 1.093-.163 2.085-.49 2.975-.327.89-.787 1.65-1.38 2.28a6.103 6.103 0 0 1-2.13 1.46c-.827.343-1.743.515-2.75.515-.993 0-1.903-.172-2.73-.515a6.103 6.103 0 0 1-2.13-1.46c-.593-.63-1.055-1.39-1.385-2.28-.33-.89-.495-1.882-.495-2.975 0-1.087.165-2.075.495-2.965.33-.89.792-1.65 1.385-2.28a6.16 6.16 0 0 1 2.13-1.465c.827-.347 1.737-.52 2.73-.52 1.007 0 1.923.172 2.75.515a6.071 6.071 0 0 1 2.13 1.465c.593.633 1.053 1.395 1.38 2.285.327.89.49 1.878.49 2.965zm-24.42-.45h3.07c.653 0 1.212-.083 1.675-.25.463-.167.843-.387 1.14-.66.297-.273.515-.583.655-.93.14-.347.21-.703.21-1.07 0-.953-.302-1.675-.905-2.165s-1.535-.735-2.795-.735h-3.05zm0 .75v5.96h3.55c1.247 0 2.187-.268 2.82-.805s.95-1.292.95-2.265c0-.447-.085-.848-.255-1.205a2.517 2.517 0 0 0-.735-.91 3.42 3.42 0 0 0-1.18-.575 5.793 5.793 0 0 0-1.59-.2zm-1.02 6.78v-14.15h4.07c.807 0 1.505.08 2.095.24.59.16 1.078.395 1.465.705.387.31.675.688.865 1.135.19.447.285.953.285 1.52 0 .373-.065.733-.195 1.08a3.25 3.25 0 0 1-.565.96 3.636 3.636 0 0 1-.905.765 4.346 4.346 0 0 1-1.225.495c1.113.167 1.97.537 2.57 1.11.6.573.9 1.33.9 2.27 0 .6-.107 1.14-.32 1.62-.213.48-.523.887-.93 1.22-.407.333-.907.588-1.5.765-.593.177-1.267.265-2.02.265zm-7.58-5.84v5.84h-1.03v-5.84l-5.23-8.31h.89a.36.36 0 0 1 .225.065.762.762 0 0 1 .165.185l4.05 6.5a4.551 4.551 0 0 1 .42.88 4.551 4.551 0 0 1 .42-.88l4.04-6.5a.57.57 0 0 1 .15-.18.364.364 0 0 1 .23-.07h.9zm-14.72.7h6.34l-2.89-7.15a5.444 5.444 0 0 1-.14-.385 15.4 15.4 0 0 1-.14-.455 15.4 15.4 0 0 1-.14.455 7.501 7.501 0 0 1-.14.395zm9.47 5.14h-.79a.347.347 0 0 1-.23-.075.497.497 0 0 1-.14-.195l-1.67-4.11h-6.95l-1.66 4.11a.43.43 0 0 1-.14.19.372.372 0 0 1-.24.08h-.78l5.79-14.15h1.02zm-19.86-.87h6.71v.87H130v-14.15h1.02z"/></defs><use fill="#fff" xlink:href="#a" transform="translate(-130 -4182)"/></svg>