<svg xmlns="http://www.w3.org/2000/svg" xmlns:xlink="http://www.w3.org/1999/xlink" width="34" height="35"><defs><path id="a" d="M1205.328 382.337c-3.768 3.77-9.895 3.77-13.663 0-3.768-3.77-3.768-9.905 0-13.671s9.895-3.77 13.663 0c3.768 3.77 3.768 9.9 0 13.67zm3.424-17.09c-5.662-5.663-14.843-5.663-20.505 0-5.663 5.662-5.663 14.843 0 20.505 5.079 5.08 12.98 5.587 18.642 1.556l4.986 4.986c.94.941 2.479.941 3.42 0 .94-.94.94-2.478 0-3.419l-4.987-4.982c4.031-5.666 3.524-13.567-1.556-18.646z"/></defs><g transform="translate(-1183 -360)" fill="#fff"><use xlink:href="#a"/><use fill-opacity="0" stroke="#ff5252" stroke-miterlimit="50" stroke-width="2" xlink:href="#a"/></g></svg>