<svg version="1.1" xmlns="http://www.w3.org/2000/svg" xmlns:xlink="http://www.w3.org/1999/xlink" x="0px" y="0px"
	 viewBox="0 0 13.802 13.802" style="enable-background:new 0 0 13.802 13.802;" xml:space="preserve">
	<g clip-path="url(#clip0)">
		<path d="M10.668 7.333C10.65 5.584 12.094 4.747 12.158 4.705C11.347 3.52 10.085 3.357 9.63401 3.339C8.56101 3.229 7.53801 3.971 6.99201 3.971C6.44801 3.971 5.60601 3.354 4.71501 3.37C3.54301 3.388 2.46401 4.052 1.86001 5.1C0.64301 7.212 1.54801 10.34 2.73401 12.055C3.31401 12.893 4.00601 13.834 4.91301 13.801C5.78701 13.766 6.11701 13.235 7.17401 13.235C8.23101 13.235 8.52801 13.801 9.45201 13.784C10.393 13.766 10.988 12.929 11.563 12.089C12.229 11.116 12.503 10.173 12.52 10.126C12.498 10.114 10.687 9.421 10.668 7.333Z" fill="#c8232c"/>
		<path d="M8.93 2.204C9.411 1.621 9.737 0.809 9.648 0C8.953 0.028 8.114 0.461 7.615 1.045C7.168 1.562 6.779 2.387 6.883 3.18C7.657 3.241 8.449 2.786 8.93 2.204Z" fill="#c8232c"/>
	</g>
	<defs>
		<clipPath id="clip0">
			<rect width="13.802" height="13.802" fill="white"/>
		</clipPath>
	</defs>
</svg>
