<svg version="1.1"
	xmlns="http://www.w3.org/2000/svg" 
	xmlns:xlink="http://www.w3.org/1999/xlink" x="0px" y="0px" viewBox="0 0 512 512" style="enable-background:new 0 0 512 512;" xml:space="preserve">
	<path d="M370.223 0H141.777C124.762 0 110.92 13.841 110.92 30.848V51.2H401.07V30.848C401.071 13.841 387.23 0 370.223 0ZM298.671 42.667H213.338C208.628 42.667 204.805 38.844 204.805 34.134C204.805 29.424 208.628 25.601 213.338 25.601H298.671C303.381 25.601 307.204 29.424 307.204 34.134C307.204 38.844 303.381 42.667 298.671 42.667ZM358.404 42.667H349.871C345.161 42.667 341.338 38.844 341.338 34.134C341.338 29.424 345.161 25.601 349.871 25.601H358.404C363.114 25.601 366.937 29.424 366.937 34.134C366.938 38.844 363.115 42.667 358.404 42.667Z" fill="#c8232c"/>
	<path d="M266.594 452.267H245.406C241.839 452.267 238.929 455.168 238.929 458.744V462.866C238.929 466.433 241.83 469.334 245.406 469.334H266.594C270.161 469.334 273.062 466.433 273.062 462.866V458.744C273.071 455.168 270.161 452.267 266.594 452.267Z" fill="#c8232c"/>
	<path d="M401.071 68.267H110.938V409.6H401.071V68.267Z" fill="#c8232c"/>
	<path d="M110.938 426.667V481.152C110.938 498.159 124.779 512 141.786 512H370.232C387.239 512 401.08 498.159 401.08 481.152V426.667H110.938ZM290.138 462.865C290.138 475.844 279.582 486.4 266.603 486.4H245.415C232.436 486.4 221.872 475.844 221.872 462.865V458.743C221.872 445.764 232.436 435.2 245.415 435.2H266.603C279.582 435.2 290.138 445.764 290.138 458.743V462.865Z" fill="#c8232c"/>
</svg>
