<svg width="11" height="18" viewBox="0 0 11 18" fill="none" xmlns="http://www.w3.org/2000/svg">
<path fill-rule="evenodd" clip-rule="evenodd" d="M5.63834 0.900391C5.47525 0.900391 5.30904 0.991573 5.23375 1.13897L0.971224 8.49136C0.87617 8.63638 0.876783 8.82762 0.973065 8.97204C1.06123 9.10429 1.20116 9.20284 1.37292 9.20284H2.80153L0.947226 13.3255C0.873778 13.4743 0.901963 13.6389 0.966131 13.7672L0.973065 13.7776C1.06699 13.9185 1.2107 13.9898 1.37292 13.9898H4.9423V16.6279C4.9423 16.888 5.15471 17.1004 5.41483 17.1004C5.67494 17.1004 5.88735 16.888 5.88735 16.6279V13.9898H9.75476C9.91697 13.9898 10.0607 13.9185 10.1546 13.7776C10.2505 13.6338 10.2497 13.4657 10.1805 13.3257L8.34416 9.20284H9.75476C9.91688 9.20284 10.0821 9.11273 10.158 8.96688C10.2507 8.82332 10.2504 8.63526 10.1569 8.49205L6.04252 1.13768L6.03819 1.13118C5.95003 0.998933 5.8101 0.900391 5.63834 0.900391ZM7.22537 8.45471C7.21668 8.46341 7.20949 8.47238 7.20357 8.4813H7.15883V8.55851L7.1402 8.57713V8.80481C7.1402 8.82585 7.14541 8.84303 7.14948 8.8539C7.1527 8.86249 7.15654 8.87039 7.15883 8.87499V8.88215L9.02271 13.0261H2.10546L3.93806 8.98363C3.97953 8.91985 4.02472 8.82825 4.02472 8.71168C4.02472 8.45157 3.81231 8.23916 3.5522 8.23916H2.19831L5.63698 2.30124L8.9693 8.23916H7.51273V8.26417C7.48269 8.26969 7.44872 8.28071 7.41736 8.30351C7.39874 8.31043 7.38456 8.32009 7.37578 8.32668C7.36109 8.3377 7.3477 8.35099 7.33939 8.35932L7.33518 8.36147L7.33386 8.36213C7.32382 8.36713 7.3022 8.37788 7.28125 8.39883C7.27056 8.40952 7.26299 8.41981 7.2577 8.42775L7.25605 8.43033C7.25348 8.43128 7.25055 8.43266 7.24777 8.43396C7.24671 8.43446 7.24567 8.43495 7.24469 8.4354L7.24372 8.43637L7.22537 8.45471ZM7.30542 8.423C7.29218 8.42125 7.27589 8.42348 7.25917 8.42922C7.26165 8.42687 7.26471 8.42426 7.26842 8.42167C7.27531 8.41685 7.28365 8.41273 7.2925 8.41007C7.30104 8.40755 7.30869 8.40679 7.31471 8.40679V8.42506C7.31183 8.42412 7.30872 8.42344 7.30542 8.423Z" fill="#FF5252"/>
</svg>
