<svg width="13" height="16" viewBox="0 0 13 16" fill="none" xmlns="http://www.w3.org/2000/svg">
<path fill-rule="evenodd" clip-rule="evenodd" d="M9.70007 14.9654H10.7127C10.7375 14.9654 10.7618 14.9645 10.7856 14.9629C10.8226 14.9549 10.859 14.9447 10.8949 14.9326C10.9329 14.9138 10.9695 14.893 11.0045 14.8693L11.0104 14.8656L11.0185 14.8586C11.032 14.8468 11.0455 14.8352 11.0577 14.8229L11.0616 14.8191C11.0678 14.8131 11.08 14.8014 11.0921 14.789C11.099 14.7786 11.1058 14.769 11.1127 14.7594C11.1324 14.7293 11.1502 14.6973 11.1666 14.6645C11.1804 14.6232 11.1919 14.5813 11.2011 14.5386C11.2028 14.5125 11.2036 14.4864 11.2036 14.4608V13.9802V12.9229V11.4296V9.66348V7.76687V5.88056V4.16933V2.7739V1.8419C11.2036 1.80385 11.2043 1.76547 11.2049 1.72696C11.2064 1.63597 11.2079 1.54423 11.2011 1.4542C11.1928 1.41451 11.1821 1.37553 11.1691 1.33704C11.1503 1.29902 11.1295 1.26248 11.1058 1.22744L11.1021 1.22157L11.0951 1.2135C11.0833 1.19992 11.0717 1.18647 11.0594 1.17423L11.0556 1.17033C11.0496 1.16412 11.0379 1.15196 11.0255 1.13982C11.0151 1.13298 11.0055 1.12614 10.9959 1.11931C10.9658 1.09957 10.9338 1.08171 10.901 1.06537C10.8592 1.05142 10.8169 1.03983 10.7736 1.03058C10.7502 1.02909 10.7265 1.02834 10.7024 1.02834C10.4382 1.02605 10.1732 1.02681 9.90788 1.02757H9.90782H9.90776H9.9077H9.90764C9.77498 1.02795 9.64227 1.02834 9.50955 1.02834H6.97101H4.01024H1.55066H1.03081L1.0306 1.12102V2.3551V4.06463V6.08653V8.26291V10.4187V12.3788V13.9922V14.961C1.13864 14.9613 1.24671 14.9622 1.35474 14.9631L1.35493 14.9631C1.49179 14.9643 1.6286 14.9654 1.76521 14.9654H4.31576H7.25936H9.70007ZM10.9839 1.10557C10.987 1.10405 11.0011 1.11635 11.0164 1.13097C10.9993 1.11862 10.9826 1.10625 10.9839 1.10557ZM11.1264 14.7474C11.1279 14.7505 11.1156 14.7646 11.101 14.7799C11.1133 14.7628 11.1257 14.7461 11.1264 14.7474ZM10.7697 15.9935C11.301 15.9669 11.8181 15.6639 12.0601 15.18C12.1768 14.9482 12.2352 14.7028 12.2369 14.4436V13.9459V12.9332V11.5309V9.86945V8.06553V6.26503V4.58812V3.16181V2.10966V1.569C12.2369 1.41109 12.2214 1.24803 12.1751 1.09699C12.0189 0.576927 11.5709 0.132382 11.0268 0.0345482C10.83 -0.000828881 10.64 -0.000367785 10.4433 0.000109558L10.3746 0.000220416H9.35679H7.87383H6.12826H4.32434H2.65945H1.35671H0.613513H0.515679C0.237624 0.000220416 0.000762979 0.235366 0.000762979 0.515137V0.916771V2.00324V3.61665V5.57676V7.73255V9.90893V11.9308V13.6404V14.8744C0.000762979 14.939 0.000572643 15.0038 0.000382121 15.0686C1.40773e-07 15.1985 -0.000381841 15.3286 0.000762979 15.458V15.482C0.000762979 15.7601 0.235908 15.997 0.515679 15.997H1.52835H3.96905H6.91265H9.46321C9.59988 15.997 9.73675 15.9977 9.87368 15.9985H9.87374H9.87381H9.87387H9.87394C10.1479 16 10.4221 16.0015 10.6956 15.997H10.7127C10.7318 15.997 10.7508 15.9958 10.7697 15.9935ZM8.97144 6.62494L8.96544 6.6249C8.87333 6.62433 8.78121 6.62375 8.6891 6.62375H7.76963L7.76743 6.66496C7.73139 7.33092 7.64385 8.01233 7.43102 8.64739L7.41202 8.703C7.53099 8.64189 7.64629 8.57402 7.75712 8.49978C7.798 8.47198 7.83887 8.44263 7.87975 8.41321C7.89499 8.40082 7.90924 8.38941 7.9235 8.37801L7.92361 8.37792C8.00771 8.30755 8.08838 8.23546 8.16562 8.15822C8.24286 8.08098 8.31666 8.00031 8.38532 7.91621C8.39809 7.90061 8.40968 7.88617 8.42107 7.87195C8.45034 7.83258 8.47953 7.79038 8.50718 7.74972C8.61849 7.58355 8.71547 7.40735 8.79683 7.22375C8.87305 7.02911 8.93126 6.82894 8.97144 6.62494ZM7.77198 5.59392C7.74571 5.04341 7.6764 4.49184 7.5443 3.95822C7.50714 3.80781 7.46314 3.66014 7.41206 3.51473C7.53102 3.57584 7.6463 3.6437 7.75712 3.71793C7.79779 3.74558 7.84 3.77477 7.87936 3.80405C7.89359 3.81544 7.90801 3.82703 7.92361 3.83979C8.00771 3.90845 8.08838 3.98225 8.16562 4.05949C8.24286 4.13672 8.31495 4.2174 8.38532 4.3015C8.39675 4.31579 8.40819 4.33009 8.42062 4.34537C8.45004 4.38624 8.47939 4.42712 8.50718 4.46799C8.61913 4.63511 8.71659 4.81238 8.79823 4.99712C8.87402 5.19031 8.93189 5.38981 8.97184 5.59392H8.85216H7.77198ZM6.74091 5.59392H5.49829C5.51085 5.35825 5.53206 5.12327 5.56193 4.88987C5.62302 4.471 5.71392 4.05268 5.86835 3.65851C5.89948 3.58897 5.93221 3.52066 5.96866 3.4536C5.98231 3.42753 5.99776 3.40236 6.01306 3.37744L6.03045 3.3489C6.03645 3.33946 6.04246 3.33046 6.04846 3.32145L6.04847 3.32143L6.06247 3.30023C6.07471 3.28549 6.08775 3.26984 6.09395 3.26308C6.10237 3.25402 6.11102 3.24545 6.11974 3.23709C6.12687 3.24393 6.13375 3.25085 6.14029 3.25793C6.14729 3.26551 6.1618 3.28278 6.17517 3.29873C6.18739 3.31582 6.20033 3.33396 6.20552 3.34204C6.22783 3.37636 6.24843 3.41069 6.26731 3.44673C6.30573 3.51619 6.34033 3.58818 6.37331 3.66163C6.52734 4.05523 6.61809 4.47287 6.67911 4.89107C6.70883 5.12409 6.72892 5.35868 6.74091 5.59392ZM4.46281 6.62375H3.38375H3.26066C3.30062 6.82788 3.35849 7.02739 3.43428 7.22059C3.51593 7.40533 3.61339 7.58259 3.72533 7.74972C3.75312 7.7906 3.78248 7.83147 3.8119 7.87234C3.82433 7.88763 3.83576 7.90192 3.84719 7.91621C3.91756 8.00031 3.98965 8.08098 4.06689 8.15822C4.14413 8.23546 4.2248 8.30926 4.3089 8.37792C4.32449 8.39068 4.33892 8.40227 4.35314 8.41365C4.39251 8.44293 4.43472 8.47213 4.47539 8.49978C4.58537 8.57345 4.69974 8.64084 4.81774 8.70158C4.74414 8.48695 4.68781 8.26598 4.64189 8.04665C4.54443 7.57928 4.48627 7.10191 4.46281 6.62375ZM4.46386 5.59392C4.49349 4.97677 4.5749 4.35251 4.74487 3.75912C4.76868 3.67683 4.79451 3.59486 4.82261 3.51362C4.70288 3.57502 4.58688 3.64325 4.47539 3.71793C4.43451 3.74572 4.39364 3.77507 4.35276 3.8045C4.33749 3.81692 4.3232 3.82835 4.30892 3.83977L4.3089 3.83979C4.2248 3.91016 4.14413 3.98225 4.06689 4.05949C3.98965 4.13672 3.91585 4.2174 3.84719 4.3015C3.83443 4.3171 3.82284 4.33152 3.81145 4.34575C3.78217 4.38511 3.75298 4.42732 3.72533 4.46799C3.61402 4.63416 3.51704 4.81036 3.43567 4.99397C3.35946 5.18859 3.30126 5.38874 3.26108 5.59272L3.27047 5.59278C3.36258 5.59335 3.45469 5.59392 3.54681 5.59392H4.46386ZM2.19112 6.06604C2.19222 5.99149 2.19555 5.91703 2.20118 5.84281C2.26468 5.0035 2.5805 4.23113 3.11429 3.58062C3.8291 2.71005 4.92954 2.21067 6.04275 2.18288C6.0726 2.18068 6.10281 2.18022 6.13336 2.18166C6.57255 2.18082 7.01215 2.25375 7.42929 2.40661C8.20167 2.68981 8.85218 3.18756 9.33276 3.85524C9.78943 4.48987 10.031 5.27724 10.0445 6.0567C10.0461 6.07286 10.0469 6.08912 10.0468 6.10542C10.0468 6.32855 10.0228 6.54653 9.98843 6.76623C9.74813 8.31956 8.47629 9.63431 6.94012 9.9467C6.7032 9.99523 6.46548 10.0221 6.22872 10.0278C6.14495 10.0389 6.05987 10.0388 5.97597 10.026C5.45353 10.0054 4.93891 9.88213 4.45136 9.66178C3.75107 9.34424 3.15205 8.78985 2.75385 8.13419C2.38738 7.53104 2.188 6.81514 2.19075 6.10614C2.19025 6.09267 2.19039 6.0793 2.19112 6.06604ZM6.74165 6.62375H5.49844C5.51102 6.85892 5.53221 7.09351 5.56201 7.32668C5.62303 7.74486 5.71378 8.16249 5.8678 8.55608C5.90078 8.62952 5.93539 8.70152 5.97381 8.77097C5.99269 8.80701 6.01328 8.84134 6.0356 8.87567C6.04078 8.88374 6.05372 8.90188 6.06594 8.91897C6.07931 8.93492 6.09382 8.95219 6.10082 8.95977C6.10736 8.96686 6.11425 8.97377 6.12137 8.98062C6.13009 8.97226 6.13875 8.96368 6.14716 8.95462C6.15336 8.94785 6.16641 8.9322 6.17866 8.91745L6.19265 8.89625L6.19268 8.8962C6.19868 8.88721 6.20467 8.87822 6.21067 8.8688L6.22805 8.84027C6.24335 8.81535 6.2588 8.79017 6.27246 8.7641C6.30891 8.69704 6.34164 8.62873 6.37276 8.55919C6.52703 8.16543 6.6179 7.74758 6.67899 7.32915C6.70884 7.09486 6.72952 6.85953 6.74165 6.62375ZM5.54814 7.22794C5.5511 7.24793 5.55374 7.2676 5.55634 7.28722L5.54814 7.22794ZM5.54814 4.98805L5.55634 4.92876C5.55374 4.94839 5.5511 4.96806 5.54814 4.98805ZM6.69297 4.98977C6.69001 4.96977 6.68737 4.9501 6.68477 4.93047L6.69297 4.98977ZM6.69297 7.22965L6.68477 7.28894C6.68737 7.26931 6.69001 7.24964 6.69297 7.22965ZM7.69876 12.6895H6.63116H4.92851H4.53546C4.26598 12.6895 4.00852 12.9263 4.02054 13.2044C4.03255 13.4842 4.2471 13.7193 4.53546 13.7193H5.60305H7.3057H7.69876C7.96823 13.7193 8.22569 13.4825 8.21367 13.2044C8.20166 12.9246 7.98883 12.6895 7.69876 12.6895ZM3.75279 12.1299H3.16407C2.874 12.1299 2.66117 11.8948 2.64916 11.615C2.63714 11.337 2.8946 11.1001 3.16407 11.1001H3.17437C3.3345 11.0967 3.49387 11.0978 3.6535 11.099C3.7334 11.0995 3.81337 11.1001 3.89354 11.1001H5.37135H7.07229H8.48487H9.07359C9.36195 11.1001 9.5765 11.3353 9.58851 11.615C9.60052 11.8931 9.34307 12.1299 9.07359 12.1299H9.06329C8.90316 12.1334 8.74379 12.1322 8.58417 12.1311C8.50426 12.1305 8.42429 12.1299 8.34413 12.1299H6.86632H5.16538H3.75279Z" fill="#FF5252"/>
</svg>
