<svg width="17" height="16" viewBox="0 0 17 16" fill="none" xmlns="http://www.w3.org/2000/svg">
<path d="M13.1005 0C13.6138 0 14.0809 0.208827 14.4188 0.546777C14.7552 0.883132 14.964 1.3502 14.964 1.8651C14.964 2.3784 14.7552 2.84547 14.4188 3.18342C14.0809 3.51978 13.6138 3.7286 13.1005 3.7286C12.5856 3.7286 12.1186 3.51978 11.7822 3.18342C11.4443 2.84547 11.2354 2.3784 11.2354 1.8651C11.2354 1.3502 11.4443 0.883132 11.7822 0.546777C12.1186 0.208827 12.5856 0 13.1005 0ZM13.7477 1.21789C13.5819 1.05211 13.3524 0.950085 13.1005 0.950085C12.8471 0.950085 12.6175 1.05211 12.4533 1.21789C12.2875 1.38209 12.1855 1.61164 12.1855 1.8651C12.1855 2.11697 12.2875 2.34652 12.4533 2.5123C12.6175 2.6765 12.8471 2.78011 13.1005 2.78011C13.3524 2.78011 13.5819 2.6765 13.7477 2.5123C13.9119 2.34652 14.0155 2.11697 14.0155 1.8651C14.0155 1.61164 13.9119 1.38209 13.7477 1.21789ZM11.4299 4.23234H14.7711C15.1617 4.23234 15.5204 4.39334 15.7786 4.65159C16.0385 4.90983 16.1995 5.26691 16.1995 5.66066V9.76547C16.1995 10.1576 16.0385 10.5147 15.7802 10.7729C15.5475 11.0057 15.2382 11.1587 14.8955 11.189V14.9511C14.8955 15.238 14.7775 15.4995 14.5878 15.6891C14.3965 15.882 14.1335 16 13.8482 16H12.3529C12.066 16 11.8045 15.882 11.6148 15.6923C11.4219 15.4995 11.3056 15.238 11.3056 14.9511V11.189C10.9628 11.1587 10.652 11.0057 10.4208 10.7761C10.161 10.5147 10 10.1576 10 9.76547V5.66066C10 5.26691 10.161 4.90983 10.4192 4.65159C10.6807 4.39334 11.0378 4.23234 11.4299 4.23234ZM14.7711 5.18243H11.4299C11.296 5.18243 11.1764 5.23503 11.0904 5.32111C11.0043 5.40879 10.9501 5.52994 10.9501 5.66066V9.76547C10.9501 9.89778 11.0027 10.0173 11.0888 10.1034C11.178 10.1911 11.2976 10.2453 11.4299 10.2453H12.2541V14.9511C12.2541 14.9798 12.2652 15.0037 12.2812 15.0212C12.3003 15.0388 12.3242 15.0499 12.3529 15.0499H13.8482C13.8753 15.0499 13.8992 15.0388 13.9167 15.0228C13.9342 15.0037 13.9454 14.9798 13.9454 14.9511V10.2453H14.7711C14.9019 10.2453 15.023 10.1911 15.1091 10.1066C15.1968 10.0173 15.2494 9.89778 15.2494 9.76547V5.66066C15.2494 5.52994 15.1952 5.40879 15.1091 5.32271C15.023 5.23503 14.9035 5.18243 14.7711 5.18243Z" fill="#FF5252"/>
<path d="M4.83216 1.21407C4.67136 1.05327 4.43819 0.948744 4.18894 0.948744C3.93166 0.948744 3.70653 1.05327 3.53769 1.21407C3.37688 1.38291 3.27236 1.60804 3.27236 1.86533C3.27236 2.11457 3.37688 2.34774 3.53769 2.51658C3.70653 2.67739 3.93166 2.78191 4.18894 2.78191C4.43819 2.78191 4.67136 2.67739 4.83216 2.51658C5.00101 2.34774 5.10553 2.11457 5.10553 1.86533C5.10553 1.60804 5.00101 1.38291 4.83216 1.21407ZM4.18894 0C4.70352 0 5.16985 0.209045 5.50754 0.546734C5.84523 0.884422 6.05427 1.35075 6.05427 1.86533C6.05427 2.3799 5.84523 2.84623 5.50754 3.18392C5.16985 3.52161 4.70352 3.73065 4.18894 3.73065C3.67437 3.73065 3.20804 3.52161 2.87035 3.18392C2.53266 2.84623 2.32362 2.3799 2.32362 1.86533C2.32362 1.35075 2.53266 0.884422 2.87035 0.546734C3.20804 0.209045 3.67437 0 4.18894 0ZM5.95779 13.2261V14.8744C5.95779 15.1799 5.83719 15.4613 5.62814 15.6623C5.42714 15.8714 5.14573 16 4.83216 16H3.50553C3.2 16 2.91859 15.8714 2.70955 15.6704C2.50854 15.4613 2.3799 15.1799 2.3799 14.8744V13.2261H0L1.5598 7.84724V5.75678C1.5598 5.34673 1.72864 4.96884 2.00201 4.69548C2.27538 4.42211 2.65327 4.25327 3.06332 4.25327C3.32864 4.25327 5.24221 4.22915 5.32261 4.25327C5.73266 4.26131 6.10251 4.43015 6.37588 4.69548C6.64925 4.96884 6.81809 5.33869 6.81809 5.74874C6.81809 6.44824 6.79397 7.16382 6.78593 7.87136L8.33769 13.2261H5.95779ZM5.00905 14.8744V12.2693H7.07538L5.83719 8C5.84523 7.47739 5.93367 6.17487 5.86131 5.74874C5.86131 5.59598 5.80503 5.46734 5.70854 5.37085C5.60402 5.26633 5.46734 5.20201 5.32261 5.20201H3.06332C2.91055 5.20201 2.77387 5.26633 2.66935 5.36281C2.57286 5.46734 2.50854 5.61206 2.50854 5.75678L2.5005 7.98392L1.26231 12.2693H3.32864V14.8744C3.32864 14.9226 3.35276 14.9628 3.37688 14.995C3.40905 15.0271 3.45729 15.0513 3.50553 15.0513H4.83216C4.8804 15.0513 4.92864 15.0271 4.9608 14.995C4.99296 14.9628 5.00905 14.9226 5.00905 14.8744Z" fill="#FF5252"/>
</svg>
