<svg width="16" height="15" viewBox="0 0 16 15" fill="none" xmlns="http://www.w3.org/2000/svg">
<path d="M5.45564 0C5.19541 0.0272764 4.97647 0.271673 4.97787 0.533333V1.77778H0.88905C0.622379 1.77776 0.417478 1.89319 0.266838 2.04444C0.116197 2.1957 0.000175532 2.40106 0.000175407 2.66667C-0.000219259 6.16276 0.000175407 9.65073 0.000175407 13.15C0.000175479 13.4178 0.0744702 13.7118 0.28906 13.9278C0.503649 14.1437 0.800154 14.2222 1.06682 14.2222H14.9333C15.1999 14.2222 15.4964 14.1424 15.711 13.9278C15.9256 13.7132 15.9999 13.4222 15.9999 13.1556C16.0001 9.71157 16 5.90408 15.9999 2.66667C15.9999 2.4 15.8837 2.19492 15.7333 2.04444C15.5828 1.89397 15.3777 1.77776 15.111 1.77778H11.0222V0.533333C11.0222 0.254089 10.7681 2.84444e-05 10.4889 0C8.8129 0 7.12747 0 5.45564 0ZM6.04452 1.06667H9.95557V1.77778H6.04452V1.06667ZM1.06682 2.84444C5.68897 2.84444 10.3111 2.84444 14.9333 2.84444C14.933 3.98685 14.9333 5.12412 14.9333 6.26667C14.9032 6.43971 14.7372 6.6465 14.3999 6.82222C14.056 7.00148 13.5803 7.11426 13.1611 7.11111C13.1592 7.11109 13.1574 7.11109 13.1555 7.11111H9.42225V6.57778C9.42225 6.34074 9.33577 6.14511 9.20558 5.98889C9.0754 5.83266 8.88189 5.68888 8.59448 5.68889H7.40561C7.1182 5.68888 6.92469 5.83266 6.79451 5.98889C6.66432 6.14511 6.57785 6.34074 6.57785 6.57778V7.11111H2.84457C2.84272 7.11109 2.84087 7.11109 2.83902 7.11111C2.41983 7.11431 1.94414 7.00148 1.60015 6.82222C1.26293 6.6465 1.09687 6.43971 1.06682 6.26667C1.06723 5.12443 1.06682 3.98766 1.06682 2.84444H1.06682ZM7.6445 6.75556H8.3556V8.53333H7.6445V6.75556ZM1.06682 7.74444C1.07996 7.75156 1.09251 7.75973 1.10571 7.76667C1.63204 8.04093 2.24785 8.18141 2.84457 8.17778C2.8464 8.17776 2.84831 8.1778 2.85013 8.17778H6.57785V8.71111C6.57785 8.94814 6.66433 9.13822 6.79451 9.29443C6.92469 9.45066 7.11821 9.6 7.40561 9.6H8.59448C8.88188 9.6 9.0754 9.45066 9.20558 9.29443C9.33577 9.13822 9.42225 8.94814 9.42225 8.71111V8.17778H13.15C13.1518 8.1778 13.1537 8.17776 13.1555 8.17778C13.7522 8.18133 14.3681 8.04093 14.8944 7.76667C14.9076 7.75973 14.9201 7.75156 14.9333 7.74444V13.1556H1.06682C1.06682 11.3845 1.06682 9.54114 1.06682 7.74444H1.06682Z" fill="#FF5252"/>
</svg>
