<svg width="9" height="16" viewBox="0 0 9 16" fill="none" xmlns="http://www.w3.org/2000/svg">
<path d="M4.83216 1.21407C4.67136 1.05327 4.43819 0.948744 4.18894 0.948744C3.93166 0.948744 3.70653 1.05327 3.53769 1.21407C3.37688 1.38291 3.27236 1.60804 3.27236 1.86533C3.27236 2.11457 3.37688 2.34774 3.53769 2.51658C3.70653 2.67739 3.93166 2.78191 4.18894 2.78191C4.43819 2.78191 4.67136 2.67739 4.83216 2.51658C5.00101 2.34774 5.10553 2.11457 5.10553 1.86533C5.10553 1.60804 5.00101 1.38291 4.83216 1.21407ZM4.18894 0C4.70352 0 5.16985 0.209045 5.50754 0.546734C5.84523 0.884422 6.05427 1.35075 6.05427 1.86533C6.05427 2.3799 5.84523 2.84623 5.50754 3.18392C5.16985 3.52161 4.70352 3.73065 4.18894 3.73065C3.67437 3.73065 3.20804 3.52161 2.87035 3.18392C2.53266 2.84623 2.32362 2.3799 2.32362 1.86533C2.32362 1.35075 2.53266 0.884422 2.87035 0.546734C3.20804 0.209045 3.67437 0 4.18894 0ZM5.95779 13.2261V14.8744C5.95779 15.1799 5.83719 15.4613 5.62814 15.6623C5.42714 15.8714 5.14573 16 4.83216 16H3.50553C3.2 16 2.91859 15.8714 2.70955 15.6704C2.50854 15.4613 2.3799 15.1799 2.3799 14.8744V13.2261H0L1.5598 7.84724V5.75678C1.5598 5.34673 1.72864 4.96884 2.00201 4.69548C2.27538 4.42211 2.65327 4.25327 3.06332 4.25327C3.32864 4.25327 5.24221 4.22915 5.32261 4.25327C5.73266 4.26131 6.10251 4.43015 6.37588 4.69548C6.64925 4.96884 6.81809 5.33869 6.81809 5.74874C6.81809 6.44824 6.79397 7.16382 6.78593 7.87136L8.33769 13.2261H5.95779ZM5.00905 14.8744V12.2693H7.07538L5.83719 8C5.84523 7.47739 5.93367 6.17487 5.86131 5.74874C5.86131 5.59598 5.80503 5.46734 5.70854 5.37085C5.60402 5.26633 5.46734 5.20201 5.32261 5.20201H3.06332C2.91055 5.20201 2.77387 5.26633 2.66935 5.36281C2.57286 5.46734 2.50854 5.61206 2.50854 5.75678L2.5005 7.98392L1.26231 12.2693H3.32864V14.8744C3.32864 14.9226 3.35276 14.9628 3.37688 14.995C3.40905 15.0271 3.45729 15.0513 3.50553 15.0513H4.83216C4.8804 15.0513 4.92864 15.0271 4.9608 14.995C4.99296 14.9628 5.00905 14.9226 5.00905 14.8744Z" fill="#FF5252"/>
</svg>
