<svg width="17" height="14" viewBox="0 0 17 14" fill="none" xmlns="http://www.w3.org/2000/svg">
<path fill-rule="evenodd" clip-rule="evenodd" d="M0.265274 2.57634C0.411629 2.34217 0.720104 2.27099 0.954273 2.41734L16.1063 11.8873C16.3404 12.0337 16.4116 12.3422 16.2653 12.5763C16.1189 12.8105 15.8104 12.8817 15.5763 12.7353L0.424274 3.26534C0.190105 3.11899 0.118919 2.81051 0.265274 2.57634Z" fill="#FF5252"/>
<path fill-rule="evenodd" clip-rule="evenodd" d="M8.33359 0.126378L15.8152 6.58009C16.0342 6.76545 16.0679 7.0856 15.8657 7.28781C15.7646 7.40576 15.6298 7.47316 15.4782 7.47316C15.3602 7.47316 15.2423 7.43946 15.1412 7.35521L13.3719 5.82182V9.026L12.3271 8.37304V4.92875L7.99658 1.18795L4.98849 3.78638L4.07703 3.21672L7.65957 0.126378C7.84493 -0.0421259 8.13138 -0.0421259 8.33359 0.126378ZM3.28432 3.90053L0.177982 6.58009C-0.0410729 6.76545 -0.0579234 7.0856 0.127432 7.30466C0.312786 7.52371 0.632944 7.54057 0.851999 7.35521L2.63815 5.82182V12.225C2.63815 12.8484 3.14366 13.3708 3.78397 13.3708H12.226C12.8495 13.3708 13.3719 12.8653 13.3719 12.225V10.2052L12.3271 9.55229V12.225C12.3271 12.2924 12.2766 12.3261 12.226 12.3261H10.204V8.97285C10.204 8.66969 10.1419 8.3802 10.0298 8.11648L7.87366 6.76886C6.71691 6.83328 5.78918 7.80086 5.78918 8.97285V12.3261H3.76712C3.69972 12.3261 3.66602 12.2755 3.66602 12.225V4.92875L4.19642 4.47059L3.28432 3.90053ZM6.8339 8.97285V12.3429H9.15926V8.97285C9.15926 8.33253 8.6369 7.81017 7.99658 7.81017C7.35626 7.81017 6.8339 8.33253 6.8339 8.97285Z" fill="#FF5252"/>
</svg>
