<svg width="17" height="11" viewBox="0 0 17 11" fill="none" xmlns="http://www.w3.org/2000/svg">
<path fill-rule="evenodd" clip-rule="evenodd" d="M1.5 0C0.671573 0 0 0.671573 0 1.5V5V6V9.5C0 10.3284 0.671573 11 1.5 11H15.5C16.3284 11 17 10.3284 17 9.5V6V5V1.5C17 0.671573 16.3284 0 15.5 0H1.5ZM1 6V9.5C1 9.77614 1.22386 10 1.5 10H15.5C15.7761 10 16 9.77614 16 9.5V6H10.95C10.7184 7.14112 9.70948 8 8.5 8C7.29052 8 6.28164 7.14112 6.05001 6H1ZM6.05001 5H1V1.5C1 1.22386 1.22386 1 1.5 1H15.5C15.7761 1 16 1.22386 16 1.5V5H10.95C10.7184 3.85888 9.70948 3 8.5 3C7.29052 3 6.28164 3.85888 6.05001 5ZM7 5.5C7 6.32843 7.67157 7 8.5 7C9.32843 7 10 6.32843 10 5.5C10 4.67157 9.32843 4 8.5 4C7.67157 4 7 4.67157 7 5.5Z" fill="#FF5252"/>
</svg>
