<svg width="21" height="16" viewBox="0 0 21 16" fill="none" xmlns="http://www.w3.org/2000/svg">
<path fill-rule="evenodd" clip-rule="evenodd" d="M7.73107 10.4207H8.26099C8.31074 10.7812 8.39187 11.117 8.49979 11.4629H7.73107C4.56562 11.4629 1.99948 8.8968 1.99948 5.7316C1.99948 5.19543 2.07312 4.67645 2.21083 4.18422L0.428375 3.11474C0.191584 2.97267 0.114802 2.66554 0.256876 2.42875C0.39895 2.19196 0.70608 2.11517 0.94287 2.25725L20.0854 13.7428C20.3222 13.8848 20.3989 14.192 20.2569 14.4287C20.1148 14.6655 19.8077 14.7423 19.5709 14.6002L18.1913 13.7725C17.1659 14.7358 15.7858 15.3259 14.2679 15.3259H7.15345L9.48385 12.7503C8.86489 11.8127 8.53653 10.7182 8.53653 9.59434C8.53653 9.07667 8.60517 8.57503 8.73384 8.09802L7.00511 7.06078L5.15294 8.72713L4.57251 8.08266L6.22722 6.59404L3.14564 4.7451C3.07754 5.06317 3.0417 5.3932 3.0417 5.7316C3.0417 8.32147 5.14095 10.4207 7.73107 10.4207ZM9.67169 8.66073C9.61074 8.96244 9.57876 9.27465 9.57876 9.59434C9.57876 10.9386 10.0362 11.7918 10.8287 12.8113L9.49609 14.2837H14.2679C15.4025 14.2837 16.443 13.8808 17.2541 13.2102L9.67169 8.66073ZM7.73107 0C5.76777 0 4.03485 0.987407 3.00189 2.49266L3.89758 3.03008C4.74658 1.82755 6.14711 1.04222 7.73107 1.04222C9.68745 1.04222 11.3637 2.24059 12.0668 3.9431C12.3893 3.81758 12.7253 3.71833 13.0718 3.64919C12.2383 1.5132 10.1617 0 7.73107 0ZM7.33128 3.83442H5.23815L6.68562 4.7029H8.32936L7.6717 5.29455L8.44954 5.76125L9.6257 4.7029H10.6687V3.83442H8.20001V2.68504H7.33128V3.83442ZM14.0183 9.1025L14.8191 9.58299C14.8131 9.2836 14.5687 9.04299 14.2679 9.04299C14.1781 9.04299 14.0932 9.06444 14.0183 9.1025ZM15.3486 9.90067L15.7529 10.1433C15.7709 10.145 15.7891 10.1459 15.8076 10.1459C16.1122 10.1459 16.359 9.89922 16.359 9.59434C16.359 9.28971 16.1122 9.04299 15.8076 9.04299C15.503 9.04299 15.2558 9.28971 15.2558 9.59434C15.2558 9.70773 15.29 9.81307 15.3486 9.90067ZM18.9572 9.59434C18.9572 10.372 18.7679 11.1055 18.4329 11.7512L19.3281 12.2884C19.7566 11.4852 19.9995 10.5681 19.9995 9.59434C19.9995 6.42939 17.4331 3.86299 14.2679 3.86299C12.2863 3.86299 10.5395 4.86877 9.5102 6.39764L10.4054 6.93474C11.2511 5.70869 12.6656 4.90522 14.2679 4.90522C16.8577 4.90522 18.9572 7.00472 18.9572 9.59434Z" fill="#FF5252"/>
</svg>
