<svg width="21" height="15" viewBox="0 0 21 15" fill="none" xmlns="http://www.w3.org/2000/svg">
<path fill-rule="evenodd" clip-rule="evenodd" d="M8.455 0C8.19477 0.0272764 7.97583 0.271673 7.97723 0.533333V1.77778H3.88841C3.62174 1.77776 3.41684 1.89319 3.2662 2.04444C3.16451 2.14654 3.0786 2.27329 3.0335 2.42658L4.06619 3.04842L4.06618 2.84444H17.9326C17.9325 3.60565 17.9325 4.36457 17.9326 5.12429L17.9326 6.26667C17.9026 6.43971 17.7365 6.6465 17.3993 6.82222C17.0553 7.00148 16.5796 7.11426 16.1604 7.11111H12.4216V6.57778C12.4216 6.34074 12.3351 6.14511 12.2049 5.98889C12.0748 5.83266 11.8812 5.68888 11.5938 5.68889H10.405C10.1176 5.68888 9.92405 5.83266 9.79387 5.98889C9.70189 6.09926 9.63173 6.2293 9.59847 6.37972L10.6439 7.0092V6.75556H11.355V7.4374L12.5845 8.17778H16.1549C16.7516 8.18133 17.3674 8.04093 17.8937 7.76667C17.9008 7.76295 17.9077 7.75888 17.9146 7.75481C17.9179 7.75287 17.9211 7.75093 17.9244 7.74903C17.9272 7.74747 17.9299 7.74593 17.9326 7.74444V11.3982L18.9993 12.0405L18.9993 2.66667C18.9993 2.4 18.8831 2.19492 18.7326 2.04444C18.5821 1.89397 18.3771 1.77776 18.1104 1.77778H14.0216V0.533333C14.0215 0.254089 13.7675 2.84444e-05 13.4883 0H8.455ZM9.04388 1.06667H12.9549V1.77778H9.04388V1.06667Z" fill="#FF5252"/>
<path fill-rule="evenodd" clip-rule="evenodd" d="M2.99938 4.70495L0.998739 3.50025C0.764571 3.35389 0.693384 3.04542 0.83974 2.81125C0.986095 2.57708 1.29457 2.50589 1.52874 2.65225L20.4662 14.0556C20.7004 14.2019 20.7716 14.5104 20.6252 14.7446C20.4789 14.9787 20.1704 15.0499 19.9362 14.9036L18.5391 14.0623C18.352 14.1768 18.1338 14.2222 17.9326 14.2222H4.06618C3.79951 14.2222 3.50301 14.1437 3.28842 13.9278C3.07383 13.7118 2.99953 13.4178 2.99953 13.15L2.99945 9.65217C2.99938 8.0027 2.99932 6.35431 2.99938 4.70495ZM17.0333 13.1556L11.1286 9.6H10.405C10.1176 9.6 9.92405 9.45066 9.79387 9.29443C9.66368 9.13822 9.57721 8.94814 9.57721 8.71111V8.66583L8.7667 8.17778H5.84393C5.24721 8.18141 4.6314 8.04093 4.10507 7.76667C4.098 7.76295 4.09112 7.75888 4.08423 7.75481C4.07826 7.75128 4.07228 7.74775 4.06618 7.74444L4.06618 13.1556H17.0333ZM6.99529 7.11111H5.83838C5.41919 7.11431 4.9435 7.00148 4.59951 6.82222C4.26228 6.6465 4.09623 6.43971 4.06618 6.26667C4.06629 5.95994 4.06634 5.65361 4.06636 5.34744L6.99529 7.11111Z" fill="#FF5252"/>
</svg>
