<svg width="7" height="16" viewBox="0 0 7 16" fill="none" xmlns="http://www.w3.org/2000/svg">
<path d="M3.10053 0C3.61383 0 4.0809 0.208827 4.41885 0.546777C4.75521 0.883132 4.96403 1.3502 4.96403 1.8651C4.96403 2.3784 4.75521 2.84547 4.41885 3.18342C4.0809 3.51978 3.61383 3.7286 3.10053 3.7286C2.58563 3.7286 2.11856 3.51978 1.78221 3.18342C1.44426 2.84547 1.23543 2.3784 1.23543 1.8651C1.23543 1.3502 1.44426 0.883132 1.78221 0.546777C2.11856 0.208827 2.58563 0 3.10053 0ZM3.74773 1.21789C3.58195 1.05211 3.3524 0.950085 3.10053 0.950085C2.84707 0.950085 2.61752 1.05211 2.45332 1.21789C2.28754 1.38209 2.18551 1.61164 2.18551 1.8651C2.18551 2.11697 2.28754 2.34652 2.45332 2.5123C2.61752 2.6765 2.84707 2.78011 3.10053 2.78011C3.3524 2.78011 3.58195 2.6765 3.74773 2.5123C3.91193 2.34652 4.01554 2.11697 4.01554 1.8651C4.01554 1.61164 3.91193 1.38209 3.74773 1.21789ZM1.42991 4.23234H4.77115C5.1617 4.23234 5.52037 4.39334 5.77862 4.65159C6.03846 4.90983 6.19946 5.26691 6.19946 5.66066V9.76547C6.19946 10.1576 6.03846 10.5147 5.78021 10.7729C5.54747 11.0057 5.23822 11.1587 4.89549 11.189V14.9511C4.89549 15.238 4.77752 15.4995 4.58782 15.6891C4.39653 15.882 4.13351 16 3.84816 16H2.35289C2.06596 16 1.80452 15.882 1.61483 15.6923C1.42194 15.4995 1.30557 15.238 1.30557 14.9511V11.189C0.962837 11.1587 0.651988 11.0057 0.420843 10.7761C0.161004 10.5147 0 10.1576 0 9.76547V5.66066C0 5.26691 0.161004 4.90983 0.419249 4.65159C0.680681 4.39334 1.03776 4.23234 1.42991 4.23234ZM4.77115 5.18243H1.42991C1.296 5.18243 1.17645 5.23503 1.09037 5.32111C1.00428 5.40879 0.950085 5.52994 0.950085 5.66066V9.76547C0.950085 9.89778 1.00269 10.0173 1.08877 10.1034C1.17804 10.1911 1.2976 10.2453 1.42991 10.2453H2.25406V14.9511C2.25406 14.9798 2.26522 15.0037 2.28116 15.0212C2.30029 15.0388 2.3242 15.0499 2.35289 15.0499H3.84816C3.87526 15.0499 3.89917 15.0388 3.91671 15.0228C3.93424 15.0037 3.9454 14.9798 3.9454 14.9511V10.2453H4.77115C4.90186 10.2453 5.02301 10.1911 5.1091 10.1066C5.19677 10.0173 5.24938 9.89778 5.24938 9.76547V5.66066C5.24938 5.52994 5.19518 5.40879 5.1091 5.32271C5.02301 5.23503 4.90346 5.18243 4.77115 5.18243Z" fill="#FF5252"/>
</svg>
