<svg width="16" height="15" viewBox="0 0 16 15" fill="none" xmlns="http://www.w3.org/2000/svg">
<path fill-rule="evenodd" clip-rule="evenodd" d="M9.99184 13.7134C13.4489 12.9152 15.6044 9.4657 14.8063 6.00863C14.0082 2.55156 10.5586 0.396055 7.10156 1.19418C4.91537 1.6989 3.18458 3.28791 2.4684 5.37118C2.37613 5.6396 2.08372 5.7824 1.8153 5.69012C1.54688 5.59784 1.40408 5.30544 1.49636 5.03702C2.32665 2.6218 4.33499 0.77798 6.87034 0.192649C10.8805 -0.733179 14.882 1.7672 15.8078 5.77741C16.7336 9.78761 14.2333 13.7891 10.2231 14.7149C6.40651 15.596 2.58208 13.372 1.43251 9.67355L0.998132 10.891C0.902751 11.1584 0.608712 11.2978 0.341377 11.2024C0.0740416 11.107 -0.0653548 10.813 0.0300262 10.5456L0.934393 8.01086C0.988582 7.85898 1.10689 7.74839 1.248 7.69869C1.38352 7.6375 1.54438 7.63532 1.688 7.7065L4.09935 8.90164C4.35367 9.02769 4.45765 9.33603 4.3316 9.59035C4.20556 9.84467 3.89721 9.94865 3.64289 9.82261L2.36056 9.18705C3.28096 12.4826 6.64004 14.4872 9.99184 13.7134Z" fill="#FF5252"/>
</svg>
