<svg width="16" height="14" viewBox="0 0 16 14" fill="none" xmlns="http://www.w3.org/2000/svg">
<path d="M15.8152 6.58009L8.33359 0.126378C8.13138 -0.0421261 7.84493 -0.0421261 7.65957 0.126378L0.177983 6.58009C-0.0410729 6.76545 -0.0579233 7.0856 0.127431 7.30466C0.312786 7.52371 0.632944 7.54057 0.852 7.35521L2.63815 5.82182V12.225C2.63815 12.8484 3.14366 13.3708 3.78397 13.3708H12.226C12.8495 13.3708 13.3719 12.8653 13.3719 12.225V5.82182L15.1412 7.35521C15.2423 7.43946 15.3602 7.47316 15.4782 7.47316C15.6298 7.47316 15.7646 7.40576 15.8657 7.28781C16.0679 7.0856 16.0342 6.76545 15.8152 6.58009ZM9.15926 12.3429H6.8339V8.97285C6.8339 8.33254 7.35626 7.81017 7.99658 7.81017C8.6369 7.81017 9.15926 8.33254 9.15926 8.97285V12.3429ZM12.3271 12.225C12.3271 12.2924 12.2766 12.3261 12.226 12.3261H10.204V8.97285C10.204 7.75962 9.20981 6.76545 7.99658 6.76545C6.78335 6.76545 5.78918 7.75962 5.78918 8.97285V12.3261H3.76712C3.69972 12.3261 3.66602 12.2755 3.66602 12.225V4.92875L7.99658 1.18795L12.3271 4.92875V12.225Z" fill="#FF5252"/>
</svg>
