<svg width="80" height="80" viewBox="0 0 80 80" fill="none" xmlns="http://www.w3.org/2000/svg">
<g clip-path="url(#clip0_2430_208011)">
<rect width="80" height="80" rx="5" fill="#EBEBEB"/>
<path d="M29.1599 35.0562C29.4486 35.0302 29.7239 34.9208 29.9515 34.7413C30.1795 34.5618 30.3501 34.32 30.4429 34.0452C30.5359 33.7705 30.5469 33.4747 30.4746 33.1938C30.4023 32.9129 30.25 32.6591 30.0361 32.4632C29.8224 32.2673 29.556 32.1378 29.2701 32.0905C28.9838 32.0432 28.6902 32.08 28.4244 32.1966C28.1589 32.3132 27.9331 32.5044 27.7741 32.7471C27.6154 32.9897 27.5306 33.2733 27.53 33.5634C27.5489 33.9772 27.7311 34.3666 28.0366 34.6464C28.342 34.9262 28.7461 35.0736 29.1599 35.0562Z" fill="white"/>
<path d="M50.0468 32.3873C50.275 32.208 50.5506 32.099 50.8396 32.0736C51.2528 32.0562 51.6559 32.2032 51.9608 32.4825C52.2657 32.7617 52.4476 33.1503 52.4665 33.5634C52.4668 33.8537 52.3823 34.1377 52.2239 34.3808C52.0652 34.624 51.8394 34.8158 51.5735 34.9327C51.308 35.0497 51.0139 35.0869 50.7276 35.0397C50.441 34.9925 50.1746 34.863 49.9604 34.6669C49.7465 34.4709 49.5939 34.2168 49.5219 33.9356C49.4495 33.6544 49.4608 33.3583 49.5542 33.0834C49.6473 32.8085 49.8185 32.5666 50.0468 32.3873Z" fill="white"/>
<path fill-rule="evenodd" clip-rule="evenodd" d="M67.0112 29.0391C67.0054 29.0184 66.998 28.998 66.9898 28.9782C66.8473 28.6873 66.7936 28.3608 66.8354 28.0396C66.8769 27.7184 67.0124 27.4165 67.2242 27.1715C67.3978 26.9674 67.5626 26.7542 67.7149 26.5348C68.6161 25.2517 69.2023 23.7743 69.426 22.2224C69.65 20.6705 69.5054 19.0877 69.0037 17.6021C68.8727 17.2207 68.3317 17.1246 67.782 17.0271C67.2693 16.9362 66.7493 16.8439 66.5479 16.5175C66.3682 16.2281 66.4353 15.7528 66.5296 15.2593C66.5601 15.1283 66.5876 14.9912 66.6059 14.8571C66.7002 14.3362 66.749 13.8426 66.4811 13.5806C66.4252 13.526 66.3685 13.4722 66.3111 13.4189C66.2729 13.3834 66.2345 13.3481 66.1957 13.3132C66.0142 13.149 65.8268 12.9913 65.6339 12.8403L65.4542 12.6971C63.4516 11.223 60.9962 10.4965 58.5142 10.6437C56.3511 10.7503 54.0476 11.4571 52.3932 12.9195C51.995 13.2022 51.5363 13.3887 51.0538 13.4643C50.571 13.5399 50.0776 13.5025 49.6119 13.3551L49.484 13.3156C47.8077 12.723 46.0813 12.2835 44.3259 12.0025C39.6555 11.2879 34.8807 11.7401 30.4273 13.3186C30.4127 13.3186 30.3983 13.3211 30.384 13.3249C30.369 13.3289 30.3541 13.3344 30.3391 13.3399L30.3174 13.3477C30.3095 13.3504 30.3016 13.353 30.2933 13.3551C29.8496 13.5157 29.3726 13.5622 28.9063 13.4904C28.44 13.4185 27.999 13.2306 27.6246 12.9438C24.517 10.2019 18.2743 9.52862 14.195 12.9713C9.72876 16.7399 9.48187 23.3085 12.7784 27.1776C12.9902 27.422 13.1257 27.7231 13.1678 28.0438C13.2102 28.3644 13.1574 28.6903 13.0158 28.9812C11.0493 32.9858 10.0199 37.3856 10.0059 41.8471C10.0059 57.7869 23.4354 69.3885 40.0059 69.3885C56.5763 69.3885 70.0059 57.7869 70.0059 41.8471C69.9906 37.4061 68.9698 33.0262 67.0203 29.0361L67.0112 29.0391ZM39.7956 40.3908C42.175 40.3908 44.1035 40.9057 44.1035 41.8258C44.1035 42.7458 42.175 44.8206 39.7956 44.8206C37.4161 44.8206 35.4877 42.7458 35.4877 41.8258C35.4877 40.9057 37.4161 40.3908 39.7956 40.3908ZM15.7273 23.5948C15.5805 23.4882 15.4563 23.3536 15.3617 23.1987C15.3358 23.158 15.3098 23.1161 15.2854 23.0738C15.2695 23.0465 15.2543 23.0191 15.2399 22.9916C14.881 22.3373 14.6549 21.6185 14.575 20.8766C14.495 20.1346 14.5624 19.3842 14.7739 18.6684C15.6208 15.8381 18.6155 14.1869 21.4765 14.5647C22.2245 14.6635 22.9478 14.9012 23.6091 15.2654C23.7293 15.3328 23.845 15.4076 23.9557 15.4891C24.0952 15.5919 24.2271 15.7055 24.3494 15.829C24.4398 15.9119 24.5069 16.0169 24.5444 16.1337C24.5618 16.2216 24.5579 16.3125 24.5322 16.3986C24.5069 16.4846 24.4608 16.563 24.3979 16.6272C24.3229 16.7008 24.2411 16.767 24.1535 16.8248C24.0934 16.8645 24.0305 16.9003 23.9655 16.9319C21.2235 18.5405 18.9902 20.8407 16.9218 23.214C16.5897 23.5979 16.2302 23.9513 15.7029 23.5918L15.7273 23.5948ZM23.0393 46.2555C20.5533 45.9752 18.3964 43.349 17.5797 40.7076C17.2202 39.5438 16.3611 34.1848 20.203 30.3065C21.4823 29.0178 23.277 27.8906 25.7813 27.138C26.5934 26.9407 27.4256 26.8385 28.2612 26.8333C29.5011 26.8333 30.9849 27.0375 32.1546 27.8966C34.6378 29.7246 34.6714 32.7712 33.1998 34.3524C31.7283 35.9336 28.3951 39.5316 27.5483 42.4716C26.7014 45.4116 25.5222 46.545 23.0363 46.2647L23.0393 46.2555ZM39.8383 55.112H39.7651C34.9851 55.0816 31.1188 51.7029 31.1188 48.309C31.1188 47.136 31.6306 46.5328 32.9072 46.8496C33.6445 47.0355 36.6819 47.8001 39.4453 47.8154H40.1551C42.8538 47.8005 45.7957 47.0725 46.637 46.8643L46.6962 46.8496C47.9697 46.545 48.4846 47.136 48.4846 48.309C48.4846 51.7029 44.6183 55.0816 39.8353 55.109L39.8383 55.112ZM62.0237 40.6772C61.2104 43.3156 59.0504 45.9417 56.5671 46.2251C54.0842 46.5084 52.9114 45.3781 52.0551 42.432C51.1991 39.486 47.8693 35.8666 46.3978 34.2976C44.9262 32.7286 44.9598 29.6576 47.4427 27.8388C48.6124 26.9827 50.0962 26.7694 51.3361 26.7785C52.172 26.7833 53.0042 26.8856 53.8163 27.0832C56.3206 27.8388 58.118 28.9629 59.3946 30.2517C63.2392 34.133 62.3771 39.489 62.0176 40.6528L62.0237 40.6772ZM64.7657 23.0068C64.726 23.0769 64.6863 23.147 64.6439 23.214C64.5475 23.3675 64.4236 23.5018 64.2783 23.61C63.7635 23.9665 63.404 23.61 63.0594 23.2323C60.991 20.8559 58.7516 18.5588 56.0157 16.9502C55.8561 16.8727 55.7099 16.7698 55.5833 16.6455C55.5207 16.581 55.4749 16.5026 55.4487 16.4168C55.4227 16.331 55.4178 16.2402 55.434 16.1519C55.4731 16.0352 55.5411 15.9304 55.6321 15.8473C55.8494 15.6248 56.0975 15.435 56.3691 15.2837C57.0347 14.9166 57.7634 14.6789 58.5172 14.5829C61.3749 14.2051 64.3696 15.8564 65.2195 18.6837C65.4307 19.3998 65.4984 20.1505 65.4188 20.8929C65.3394 21.6352 65.1142 22.3546 64.7565 23.0099L64.7657 23.0068Z" fill="white"/>
</g>
<defs>
<clipPath id="clip0_2430_208011">
<rect width="80" height="80" fill="white"/>
</clipPath>
</defs>
</svg>
