<?xml version="1.0" encoding="UTF-8"?>
<svg width="480px" height="546px" viewBox="0 0 480 546" version="1.1" xmlns="http://www.w3.org/2000/svg" xmlns:xlink="http://www.w3.org/1999/xlink">
    <title>visa information</title>
    <defs>
        <rect id="path-1" x="0" y="0" width="480" height="546"></rect>
        <linearGradient x1="26.868881%" y1="26.9952459%" x2="73.480367%" y2="85.8521086%" id="linearGradient-3">
            <stop stop-color="#F0279F" offset="0%"></stop>
            <stop stop-color="#E6007E" offset="100%"></stop>
        </linearGradient>
    </defs>
    <g id="Page" stroke="none" stroke-width="1" fill="none" fill-rule="evenodd">
        <g id="Group-6">
            <mask id="mask-2" fill="white">
                <use xlink:href="#path-1"></use>
            </mask>
            <use id="Mask" fill="#F1D7E5" xlink:href="#path-1"></use>
            <g mask="url(#mask-2)" fill="url(#linearGradient-3)" fill-rule="nonzero" id="Combined-Shape">
                <g transform="translate(-208.000000, -226.000000)">
                    <path d="M896,0 L896,317.868794 C748.13945,300.180851 599.148624,292.262411 450.157798,291.748227 C329.321101,292.570922 207.765138,297.712766 87.133945,309.12766 C58.0550459,312.109929 28.9761468,315.400709 0,319 L0,319 L0,0 L896,0 Z M451.904587,35.8900709 C357.06422,35.8900709 280.308257,86.5886525 280.308257,148.907801 C280.308257,211.22695 357.06422,261.925532 451.904587,261.925532 C546.744954,261.925532 623.500917,211.329787 623.500917,148.907801 C623.500917,86.4858156 546.744954,35.8900709 451.904587,35.8900709 Z M752.222018,388.10258 L454.240367,897 L897,897 L897,398.976018 C867.201835,396.308948 837.506422,393.436719 807.708257,391.487707 C789.212844,390.154172 770.717431,389.128376 752.119266,388 L752.222018,388.10258 Z M140.126606,389.128376 C125.124771,390.051592 110.020183,390.872229 95.0183486,392.000605 C63.5761468,394.052197 32.3394495,397.232164 1,400.104393 L1,897 L448.794495,897 L140.023853,389.128376 L140.126606,389.128376 Z"></path>
                </g>
            </g>
        </g>
    </g>
</svg>