<?xml version="1.0" encoding="UTF-8"?>
<svg width="300px" height="45px" viewBox="0 0 300 45" version="1.1" xmlns="http://www.w3.org/2000/svg" xmlns:xlink="http://www.w3.org/1999/xlink">
    <title>Logos/Color</title>
    <g id="Logos/Color" stroke="none" stroke-width="1" fill="none" fill-rule="evenodd">
        <g id="Pro-Force_2022_New_Logo_RGB" transform="translate(12.000000, 10.000000)" fill-rule="nonzero">
            <g id="Group" transform="translate(202.000000, 0.000000)">
                <path d="M50.2082442,0 L50.2082442,8.61356395 C52.2354546,8.88666363 54.2517513,9.21984524 56.254406,9.64588075 C59.4057223,10.30132 62.5188408,11.172508 65.5473785,12.2594447 C68.5568173,13.3846154 71.3479832,14.6627219 74,16.4679108 L74,0 L50.2109726,0 L50.2082442,0 Z" id="Path" fill="#009FE3"></path>
                <path d="M25.1041221,0 L25.1041221,8.47155212 C25.8735344,8.37596723 26.6456751,8.28857533 27.4178158,8.20937642 C30.6209719,7.90623578 33.8486837,7.76968594 37.0572967,7.74783796 C41.0134946,7.76149294 44.9696925,7.9717797 48.8958779,8.44151115 L48.8958779,0 L25.1041221,0 Z" id="Path" fill="#E6007E"></path>
                <path d="M0.00272841236,0 L0.00272841236,16.5389167 C2.6492884,14.7255348 5.57960327,13.4419663 8.58631369,12.3086026 C11.6093946,11.2107419 14.7197847,10.3368229 17.871101,9.67319071 C19.830101,9.24169322 21.8082,8.91943559 23.7944842,8.64906691 L23.7944842,0 L0.00545682472,0 L0.00272841236,0 Z" id="Path" fill="#76B82A"></path>
                <path d="M16.5996608,6.71005917 C16.6324017,8.36504324 14.6215618,9.75238962 12.1059656,9.80427856 C9.58764103,9.8588985 7.52496129,8.55348202 7.48676351,6.89849795 C7.45129415,5.24078289 9.46213406,3.85070551 11.9804587,3.79881657 C14.4960549,3.74965863 16.5587346,5.05234411 16.5969324,6.71005917" id="Path" fill="#FFFFFF"></path>
                <path d="M37.1036797,0.953117888 C34.5853551,0.953117888 32.547231,2.29949932 32.547231,3.95448339 C32.547231,5.60946746 34.5853551,6.95584888 37.1036797,6.95584888 C39.6220043,6.95584888 41.6601283,5.61219845 41.6601283,3.95448339 C41.6601283,2.29676832 39.6220043,0.953117888 37.1036797,0.953117888 Z" id="Path" fill="#FFFFFF"></path>
                <path d="M57.6076985,6.77833409 C57.5749576,8.43604916 59.5857975,9.82066454 62.1013937,9.87528448 C64.6169899,9.92717342 66.6823981,8.62448794 66.7178674,6.96677287 C66.7533368,5.30905781 64.7424969,3.92171142 62.2241723,3.86982249 C59.7085761,3.82066454 57.6458963,5.12061903 57.6076985,6.77833409" id="Path" fill="#FFFFFF"></path>
                <path d="M23.7917558,8.64906691 C21.8054716,8.91943559 19.830101,9.24442421 17.8683725,9.67319071 C14.7170563,10.3368229 11.6066662,11.2107419 8.58358528,12.3086026 C5.57687486,13.4419663 2.6492884,14.7282658 0,16.5389167 C1.70798614,15.7332726 3.41870069,15.0723714 5.20035396,14.4906691 L12.0213849,23.9371871 L20.081115,11.161584 C21.3143573,10.9922622 22.5503281,10.8365954 23.7890274,10.7027765 L23.7890274,8.64906691 L23.7917558,8.64906691 Z" id="Path" fill="#FFFFFF"></path>
                <g transform="translate(25.104122, 7.747838)" fill="#FFFFFF" id="Path">
                    <path d="M23.7917558,0.693673191 C19.8655704,0.226672736 15.9093725,0.0163859809 11.9531745,0 C8.74729002,0.0218479745 5.5195782,0.155666818 2.31369368,0.461538462 C1.54155298,0.540737369 0.769412285,0.628129267 0,0.723714156 L0,2.83750569 C0.829437357,2.76103778 1.66160313,2.67637688 2.49649731,2.62175694 C2.89484551,2.59171598 3.29592213,2.569868 3.69427033,2.54528903 L11.9668166,16.1866181 L19.9474228,2.51797906 C20.4412654,2.54802003 20.9323796,2.57533 21.4234938,2.61083295 C22.2147334,2.6599909 23.0032446,2.7391898 23.7944842,2.81019572 L23.7944842,0.696404188 L23.7917558,0.693673191 Z"></path>
                    <path d="M40.440528,4.51160674 C37.4119903,3.42193901 34.3016002,2.55348202 31.1475555,1.89804279 C29.1449008,1.47200728 27.1286041,1.13882567 25.1013937,0.86572599 L25.1013937,2.91943559 C26.2855247,3.04233045 27.4669272,3.18434228 28.6483298,3.3427401 L36.8008259,16.252162 L43.7337217,6.64997724 C45.5508443,7.23441056 47.1524224,7.90077378 48.8904211,8.72007283 C46.2384042,6.91215294 43.4472384,5.63404643 40.4377996,4.51160674 L40.440528,4.51160674 Z"></path>
                </g>
                <g transform="translate(0.002728, 10.700046)" fill="#76B82A" id="Path">
                    <path d="M12.095052,13.1142467 L23.7890274,13.1142467 L23.7890274,0 C22.5503281,0.133818844 21.3143573,0.289485662 20.081115,0.458807465 L12.095052,13.1142467 Z"></path>
                    <path d="M11.9340757,13.1142467 L5.20035396,3.78789258 C3.41870069,4.3695949 1.70798614,5.03049613 0,5.83614019 L0,13.1142467 L11.9340757,13.1142467 L11.9340757,13.1142467 Z"></path>
                </g>
                <g transform="translate(25.104122, 10.263086)" fill="#E6007E" id="Path">
                    <path d="M19.9474228,0.00273099681 L12.0350269,13.5512062 L23.7917558,13.5512062 L23.7917558,0.292216659 C23.0005162,0.221210742 22.212005,0.144742831 21.4207654,0.0928538917 C20.9296512,0.0573509331 20.438537,0.030040965 19.9446943,0 L19.9474228,0.00273099681 Z"></path>
                    <path d="M3.69427033,0.030040965 C3.29592213,0.0546199363 2.89484551,0.0764679108 2.49649731,0.106508876 C1.66160313,0.161128812 0.832165769,0.245789713 0,0.322257624 L0,13.5512062 L11.8904211,13.5512062 L3.69154192,0.030040965 L3.69427033,0.030040965 Z"></path>
                </g>
                <g transform="translate(50.208244, 10.670005)" fill="#009FE3" id="Path">
                    <path d="M3.54693607,0.423304506 C2.36553352,0.264906691 1.18413096,0.122894857 0,0 L0,13.1470187 L11.5821105,13.1470187 L3.54693607,0.426035503 L3.54693607,0.423304506 Z"></path>
                    <path d="M11.8358528,13.1442877 L23.7890274,13.1442877 L23.7890274,5.79790624 C22.0510287,4.97860719 20.4494506,4.31497497 18.632328,3.72781065 L11.8358528,13.1415567 L11.8358528,13.1442877 Z"></path>
                </g>
            </g>
            <g id="Group" transform="translate(-0.000000, 0.000000)" fill="#6C6B73">
                <path d="M10.2969442,0.307516302 C15.5783326,0.307516302 17.9491253,4.04438851 17.9491253,7.23487015 C17.9491253,10.4253518 15.646147,14.2967624 10.3294951,14.2967624 L5.75880204,14.2967624 L5.75880204,23.689738 L0,23.689738 L0,0.307516302 L10.2969442,0.307516302 Z M5.75880204,10.0134996 L8.43069088,10.0134996 C11.0727414,10.0134996 12.0221435,9.05525684 12.0221435,7.30625787 C12.0221435,5.31563894 10.9072741,4.59352477 7.79052259,4.59352477 L5.75880204,4.59352477 L5.75880204,10.0134996 Z" id="Shape"></path>
                <path d="M31.15124,0.307516302 C35.8928255,0.307516302 38.7030558,3.53094612 38.7030558,7.02894406 C38.7030558,9.60164741 37.3847431,11.5236243 34.7399801,12.7564352 C37.1107728,13.9562979 37.8241807,16.8365176 41.0765611,23.6924837 L34.7399801,23.6924837 C32.268822,18.6871067 31.3519708,14.1979179 28.2406444,14.1979179 L26.5805469,14.1979179 L26.5805469,23.6924837 L20.8244575,23.6924837 L20.8244575,0.307516302 L31.1539526,0.307516302 L31.15124,0.307516302 Z M26.5805469,9.90641803 L29.6267715,9.90641803 C31.2190545,9.90641803 32.7787865,9.22274339 32.7787865,7.23212447 C32.7787865,5.4831255 31.6612046,4.59077909 29.4938552,4.59077909 L26.5832595,4.59077909 L26.5832595,9.90641803 L26.5805469,9.90641803 Z" id="Shape"></path>
                <path d="M54.9622453,24 C46.496291,24 41.7221546,17.9649926 41.7221546,12.0041185 C41.7221546,6.04324448 46.2602967,0 54.9622453,0 C63.664194,0 68.1724978,6.3782176 68.1724978,12.0041185 C68.1724978,17.9979407 63.2627325,24 54.9622453,24 Z M54.9622453,4.8680929 C50.5597321,4.8680929 47.6464238,7.71261869 47.6464238,12.0041185 C47.6464238,16.2956184 50.5597321,19.1319071 54.9622453,19.1319071 C59.3647586,19.1319071 62.2455159,16.2846356 62.2455159,12.0041185 C62.2455159,7.72360142 59.3322077,4.8680929 54.9622453,4.8680929 Z" id="Shape"></path>
                <polygon id="Path" points="99.5597321 4.59352477 89.3957042 4.59352477 89.3957042 9.8075735 99.5597321 9.8075735 99.5597321 14.093582 89.3957042 14.093582 89.3957042 23.6952294 83.6396147 23.6952294 83.6396147 0.307516302 99.5597321 0.307516302 99.5597321 4.59352477"></polygon>
                <path d="M115.33337,24 C106.870128,24 102.090567,17.9649926 102.090567,12.0041185 C102.090567,6.04324448 106.628709,0 115.33337,0 C124.038031,0 128.54091,6.3782176 128.54091,12.0041185 C128.54091,17.9979407 123.631145,24 115.33337,24 Z M115.33337,4.8680929 C110.930857,4.8680929 108.017549,7.71261869 108.017549,12.0041185 C108.017549,16.2956184 110.928144,19.1319071 115.33337,19.1319071 C119.738596,19.1319071 122.616641,16.2846356 122.616641,12.0041185 C122.616641,7.72360142 119.703333,4.8680929 115.33337,4.8680929 L115.33337,4.8680929 Z" id="Shape"></path>
                <path d="M141.878654,0.307516302 C146.617527,0.307516302 149.433182,3.53094612 149.433182,7.02894406 C149.433182,9.60164741 148.112157,11.5236243 145.467394,12.7564352 C147.838186,13.9562979 148.551594,16.8365176 151.801262,23.6924837 L145.467394,23.6924837 C142.996236,18.6871067 142.082097,14.1979179 138.968058,14.1979179 L137.307961,14.1979179 L137.307961,23.6924837 L131.551871,23.6924837 L131.551871,0.307516302 L141.878654,0.307516302 Z M137.307961,9.90641803 L140.354185,9.90641803 C141.946468,9.90641803 143.5062,9.22274339 143.5062,7.23212447 C143.5062,5.4831255 142.388618,4.59077909 140.221269,4.59077909 L137.307961,4.59077909 L137.307961,9.90641803 Z" id="Shape"></path>
                <path d="M174.858171,21.6689166 C171.641054,23.3492735 169.205159,24 165.784599,24 C156.80868,24 152.341065,18.1022766 152.341065,12.0700149 C152.341065,6.03775312 157.383747,0 166.224037,0 C169.441154,0 172.319198,0.686420318 174.586913,2.05651527 L174.586913,7.27056401 C172.047941,5.82908134 169.473705,4.8680929 166.625498,4.8680929 C161.715733,4.8680929 158.262622,7.81695458 158.262622,11.9684247 C158.262622,16.1198947 161.683182,19.1319071 166.492582,19.1319071 C169.506256,19.1319071 171.537976,18.1709187 174.855458,16.5619494 L174.855458,21.6689166 L174.858171,21.6689166 Z" id="Path"></path>
                <polygon id="Path" points="195.997287 23.6924837 178.962301 23.6924837 178.962301 0.307516302 195.761293 0.307516302 195.761293 4.59352477 184.723815 4.59352477 184.723815 9.49731152 195.256754 9.49731152 195.256754 13.78332 184.723815 13.78332 184.723815 19.4037296 196 19.4037296 196 23.6924837"></polygon>
                <rect id="Rectangle" x="71.4791298" y="9.8075735" width="8.84029008" height="4.28600847"></rect>
            </g>
        </g>
    </g>
</svg>