<?xml version="1.0" encoding="UTF-8"?>
<svg width="480px" height="546px" viewBox="0 0 480 546" version="1.1" xmlns="http://www.w3.org/2000/svg" xmlns:xlink="http://www.w3.org/1999/xlink">
    <title>job application</title>
    <defs>
        <rect id="path-1" x="0" y="0" width="480" height="546"></rect>
        <linearGradient x1="61.3437541%" y1="34.1325659%" x2="98.436097%" y2="84.4879491%" id="linearGradient-3">
            <stop stop-color="#AEDD54" offset="0%"></stop>
            <stop stop-color="#76B82A" offset="100%"></stop>
        </linearGradient>
    </defs>
    <g id="Page" stroke="none" stroke-width="1" fill="none" fill-rule="evenodd">
        <g id="Group-5">
            <mask id="mask-2" fill="white">
                <use xlink:href="#path-1"></use>
            </mask>
            <use id="Mask" fill="#EDF5E8" xlink:href="#path-1"></use>
            <g mask="url(#mask-2)" fill="url(#linearGradient-3)" fill-rule="nonzero" id="Combined-Shape">
                <g transform="translate(-493.000000, -286.000000)">
                    <path d="M983,443 L983,985 L499.786558,985 L829.783232,461.962099 C880.742746,454.964182 931.815002,448.530612 983,443 L983,443 Z M214.886799,599.550187 L493.134763,985 L0,985 L0,684.202416 C70.5766716,650.905873 141.266086,623.59142 214.886799,599.550187 L214.886799,599.550187 Z M985,0 L985,357.699472 C902.766055,368.88111 820.870986,382.208719 739.766628,400.054161 C609.299312,427.5 480.526376,463.642668 355.368119,509.046896 C232.13242,555.450694 111.996624,607.942893 3.29061435,681.756677 L0,684 L0,0 L985,0 Z M495.197663,156.365123 C391.387786,158.516817 308.497343,216.159558 309.959454,284.900508 C311.534035,353.528211 396.56141,407.660294 500.371286,405.395353 C603.031719,403.265177 685.299246,346.859218 685.624775,279.14192 L685.609495,277.086463 L685.497025,277.086463 C683.922444,208.345512 598.895069,154.326677 495.197663,156.365123 Z"></path>
                </g>
            </g>
        </g>
    </g>
</svg>