<?xml version="1.0" encoding="UTF-8"?>
<svg width="58px" height="63px" viewBox="0 0 58 63" version="1.1" xmlns="http://www.w3.org/2000/svg" xmlns:xlink="http://www.w3.org/1999/xlink">
    <title>up-arrow copy</title>
    <g id="Page" stroke="none" stroke-width="1" fill="none" fill-rule="evenodd">
        <g id="Homepage" transform="translate(-431.000000, -3651.000000)" fill="#2E2E2E" fill-rule="nonzero">
            <g id="up-arrow-copy" transform="translate(460.000000, 3682.315595) rotate(-20.000000) translate(-460.000000, -3682.315595) translate(438.500000, 3656.815595)">
                <path d="M30.540979,5.78129818 C19.6865802,1.32918318 8.67724159,6.64077984 3.56852973,16.6107671 C-1.63056373,26.7612455 -0.989284821,40.2035386 4.4551301,50.0918751 C5.59135582,52.1503337 8.4706551,50.3454222 7.54962364,48.2869636 C3.52979476,39.2924881 2.75079152,28.6478077 6.68884658,19.4943281 C8.37585891,15.5102309 11.2759859,12.157401 14.9781297,9.91110755 C19.8200007,6.94159842 24.8770659,7.39282629 30.2440109,7.85264897 C31.5351765,7.96438159 31.5308726,6.19384937 30.540979,5.78129818 L30.540979,5.78129818 Z" id="Path"></path>
                <path d="M42.4024869,7.53034335 C38.0254355,4.56083422 33.3643277,0.946713842 28.0189022,0.0184736495 C27.6267797,-0.069600617 27.2344851,0.165270159 27.1275658,0.552125847 C27.0206465,0.938981536 27.2367782,1.34150363 27.6186409,1.46670025 C32.1118971,3.22863765 35.9337473,5.83286708 39.7555974,8.67345396 C37.3282061,10.6029903 34.5263768,12.1887339 32.4389924,14.4577655 C32.0511169,14.8752407 32.0224776,15.5115621 32.371286,15.962094 C32.7200945,16.4126259 33.3440426,16.5452239 33.8463629,16.2755692 C37.0798952,14.4391763 40.0408505,12.1610519 42.6435045,9.50715117 C42.9098763,9.22807197 43.0371877,8.84461056 42.9905285,8.46191588 C42.9438694,8.07922119 42.7281368,7.7374588 42.4024869,7.53034335 L42.4024869,7.53034335 Z" id="Path"></path>
            </g>
        </g>
    </g>
</svg>