<svg width="15" height="15" viewBox="0 0 15 15" fill="none" xmlns="http://www.w3.org/2000/svg">
<path d="M14.4538 6.16759L13.1093 4.82136V3.74762C13.1093 2.71575 12.2705 1.87576 11.2398 1.87576H10.1672L8.82264 0.530151C8.11569 -0.176717 6.88431 -0.176717 6.17799 0.530151L4.83347 1.87576H3.76086C2.7295 1.87576 1.89129 2.71513 1.89129 3.74762V4.82136L0.546151 6.16759C-0.18205 6.89758 -0.18205 8.08445 0.546151 8.81444L1.89067 10.1607V11.2344C1.89067 12.2663 2.7295 13.1063 3.76024 13.1063H4.83285L6.17736 14.4519C6.53052 14.805 7.00057 15 7.5 15C7.99943 15 8.46885 14.805 8.82201 14.4519L10.1665 13.1063H11.2391C12.2705 13.1063 13.1087 12.2669 13.1087 11.2344V10.1607L14.4538 8.81444C15.1821 8.08445 15.1821 6.89758 14.4538 6.16759ZM11.3773 6.38197L8.2182 9.50381C7.83441 9.88505 7.32873 10.0763 6.82368 10.0763C6.31863 10.0763 5.81545 9.88568 5.43041 9.50568L3.80587 7.94382C3.56084 7.7007 3.55834 7.30571 3.80149 7.06008C4.04527 6.81571 4.43968 6.81258 4.68596 7.05571L6.30988 8.61694C6.59303 8.89756 7.0537 8.89819 7.33748 8.61694L10.4972 5.49447C10.7435 5.25073 11.1385 5.25323 11.3817 5.49885C11.6248 5.74447 11.6223 6.13884 11.3773 6.38197Z" fill="#2CC96A"/>
</svg>
